<svg xmlns="http://www.w3.org/2000/svg" version="1.1" viewBox="0 0 800 1080" width="800" height="1080">
<!--ITEM 1--><g><defs><clipPath id="clip-path-id-viewbox-item-1"><rect x="0.0" y="0.0" width="247.5" height="506.5"/></clipPath></defs><g transform="translate(67.0 314.0) rotate(-0.36002312699912575 140.5 287.0) scale(1.1353535353535353 1.1332675222112536)"><g clip-path="url(#clip-path-id-viewbox-item-1)" transform="translate(-0.0 -0.0)"><g>
    <g>
      <path d="M246.75,432.61v38.14a35,35,0,0,1-35,35H174.49c19.33,0,35-14.85,35-38.14h2.26A35,35,0,0,0,246.75,432.61Z" style="         fill: #1a4d81;       "/>
      <path d="M63.2,467.61H209.49c0,23.29-15.67,38.14-35,38.14H35.75a35,35,0,0,1-35-35V432.61a35,35,0,0,0,35,35Zm88.67,19.7a6.87964,6.87964,0,0,0-6.89-6.88H102.51a6.88,6.88,0,1,0,0,13.76h42.47A6.88818,6.88818,0,0,0,151.87,487.31Z" style="         fill: #2768ab;       "/>
      <path d="M194.95.75V261.98a31.92077,31.92077,0,0,1-31.93,31.92H95.12A31.91863,31.91863,0,0,0,63.2,325.82V467.61H35.75a35,35,0,0,1-35-35V35.75a35,35,0,0,1,35-35Z" style="         fill: #ffedc5;       "/>
      <path d="M246.75,35.75V432.61a35,35,0,0,1-35,35H63.2V325.82A31.91863,31.91863,0,0,1,95.12,293.9h67.9a31.92077,31.92077,0,0,0,31.93-31.92V.75h16.8A35,35,0,0,1,246.75,35.75Z" style="         fill: #fcecb9;       "/>
      <path d="M138.175.75V15.18a14.425,14.425,0,1,1-28.85,0V.75Z" style="         fill: #2768ab;       "/>
      <path d="M129.775,9.16a8.51357,8.51357,0,1,1-6.03-2.5A8.48709,8.48709,0,0,1,129.775,9.16Z" style="         fill: #1a4d81;       "/>
      <path d="M149.85,482.44a6.88016,6.88016,0,0,1-4.87,11.75H102.51a6.88,6.88,0,0,1,0-13.76h42.47A6.89571,6.89571,0,0,1,149.85,482.44Z" style="         fill: #1a4d81;       "/>
    </g>
    <g>
      <path d="M211.75008,506.49988h-176a35.79045,35.79045,0,0,1-35.75-35.75V35.75A35.79045,35.79045,0,0,1,35.75008,0h73.575a.75.75,0,0,1,0,1.5H35.75008a34.28881,34.28881,0,0,0-34.25,34.25V470.74988a34.28881,34.28881,0,0,0,34.25,34.25h176a34.28881,34.28881,0,0,0,34.25-34.25V35.75a34.28881,34.28881,0,0,0-34.25-34.25H138.17489a.75.75,0,0,1,0-1.5h73.57519a35.79045,35.79045,0,0,1,35.75,35.75V470.74988A35.79045,35.79045,0,0,1,211.75008,506.49988Z" fill="#000000"/>
      <path d="M211.75008,468.36h-176a35.79045,35.79045,0,0,1-35.75-35.75.75.75,0,0,1,1.5,0,34.28881,34.28881,0,0,0,34.25,34.25h176a34.28881,34.28881,0,0,0,34.25-34.25.75.75,0,0,1,1.5,0A35.79045,35.79045,0,0,1,211.75008,468.36Z" fill="#000000"/>
      <path d="M174.49007,505.99988a.25.25,0,0,1,0-.5c20.1355,0,34.75-15.93506,34.75-37.88989a.25.25,0,0,1,.5,0C209.74007,489.85462,194.91536,505.99988,174.49007,505.99988Z" fill="#000000"/>
      <path d="M144.98006,494.94006h-42.47a7.63,7.63,0,1,1,0-15.26h42.47a7.63,7.63,0,1,1,0,15.26Zm-42.47-13.76a6.13,6.13,0,1,0,0,12.26h42.47a6.13,6.13,0,1,0,0-12.26Z" fill="#000000"/>
      <path d="M63.2,467.86a.25.25,0,0,1-.25-.25V325.82A32.20639,32.20639,0,0,1,95.12,293.65H163.0201A31.7107,31.7107,0,0,0,194.7,261.9801V.75a.25.25,0,0,1,.5,0V261.9801A32.21135,32.21135,0,0,1,163.0201,294.15H95.12A31.70574,31.70574,0,0,0,63.45,325.82V467.61A.25.25,0,0,1,63.2,467.86Z" fill="#000000"/>
      <path d="M123.745,30.36A15.19211,15.19211,0,0,1,108.575,15.18005V.75a.75.75,0,0,1,.75-.75h28.84986a.75.75,0,0,1,.75.75V15.18005A15.19207,15.19207,0,0,1,123.745,30.36ZM110.075,1.5V15.18005A13.69047,13.69047,0,0,0,123.745,28.86a13.69188,13.69188,0,0,0,13.67994-13.67994V1.5Z" fill="#000000"/>
      <path d="M123.745,23.93994a8.75146,8.75146,0,1,1,6.20679-2.56323A8.70393,8.70393,0,0,1,123.745,23.93994Zm0-17.0299a8.26835,8.26835,0,1,0,5.85328,2.42675A8.27435,8.27435,0,0,0,123.745,6.91Z" fill="#000000"/>
    </g>
  </g>
</g></g></g><!--ITEM 2--><g><defs><clipPath id="clip-path-id-viewbox-item-2"><rect x="0.0" y="0.0" width="40.95" height="40.575"/></clipPath></defs><g transform="translate(99.0 569.0) rotate(27.326746931990535 98.5 98.5) scale(4.8107448107448105 4.855206407886629)"><g clip-path="url(#clip-path-id-viewbox-item-2)" transform="translate(-0.0 -0.0)"><g>
	<path style="fill:#FFD249;" d="M38.77,17.76c1.19,2.94,1.5,6.24,0.84,9.34c-1.23,5.75-5.94,10.6-11.64,12   c-12.68,3.12-24.63-9.7-19.1-21.93c1.93-4.29,5.87-7.56,10.37-8.9c1.54-0.47,3.16-0.7,4.78-0.67C30.34,7.73,36.4,11.9,38.77,17.76z    M27.2,26.09c1.26-1.57,1.07-4.11-0.42-5.47c-1.49-1.36-4.03-1.32-5.48,0.08c-1.45,1.4-1.57,3.94-0.27,5.47   C22.72,28.44,25.94,27.66,27.2,26.09z"/>
	<path d="M26.78,20.62c1.49,1.36,1.68,3.9,0.42,5.47c-1.26,1.57-4.48,2.35-6.17,0.08c-1.3-1.53-1.18-4.07,0.27-5.47   C22.75,19.3,25.29,19.26,26.78,20.62z" fill="#000000"/>
	<path d="M24.048,40.578c-5.161,0-10.136-2.315-13.621-6.506c-4.177-5.022-5.1-11.495-2.468-17.314   c2.008-4.463,6.118-7.993,10.996-9.445c1.647-0.503,3.356-0.751,5.084-0.712c6.708,0.138,13.146,4.573,15.658,10.785   c1.27,3.137,1.586,6.66,0.892,9.923c-1.313,6.138-6.289,11.267-12.381,12.763C26.825,40.412,25.43,40.578,24.048,40.578z    M23.732,8.597c-1.422,0-2.833,0.212-4.2,0.629c-4.335,1.291-7.978,4.413-9.75,8.354c0,0.001-0.001,0.001-0.001,0.002   c-2.309,5.105-1.492,10.792,2.184,15.212c3.924,4.719,9.97,6.763,15.766,5.336c5.364-1.318,9.745-5.835,10.902-11.238   c0.612-2.876,0.332-5.985-0.789-8.756C35.622,12.643,29.93,8.722,24,8.6C23.911,8.598,23.821,8.597,23.732,8.597z M8.87,17.17h0.01   H8.87z" fill="#000000"/>
	<path d="M0.499,27.94c-0.252,0-0.469-0.189-0.496-0.446c-0.029-0.274,0.169-0.521,0.443-0.551c1.018-0.11,2.288-0.221,3.559-0.331   c1.265-0.109,2.528-0.22,3.541-0.329c0.27-0.029,0.521,0.168,0.551,0.443c0.029,0.274-0.169,0.521-0.443,0.551   c-1.018,0.11-2.29,0.221-3.562,0.331c-1.264,0.11-2.526,0.22-3.538,0.329C0.535,27.939,0.517,27.94,0.499,27.94z" fill="#000000"/>
	<path d="M9.6,15.8c-0.097,0-0.193-0.027-0.279-0.085c-0.83-0.559-2.188-1.385-3.5-2.183c-1.322-0.805-2.689-1.636-3.539-2.207   c-0.229-0.154-0.29-0.465-0.136-0.694c0.155-0.229,0.468-0.288,0.694-0.136c0.83,0.559,2.188,1.385,3.5,2.183   c1.322,0.805,2.689,1.636,3.539,2.207c0.229,0.154,0.29,0.465,0.136,0.694C9.918,15.722,9.76,15.8,9.6,15.8z" fill="#000000"/>
	<path d="M19.239,8.77c-0.232,0-0.44-0.163-0.489-0.4C18.507,7.175,18.215,5.8,17.924,4.43c-0.283-1.337-0.566-2.67-0.804-3.831   c-0.055-0.271,0.12-0.534,0.391-0.59c0.266-0.058,0.534,0.12,0.59,0.391c0.236,1.158,0.519,2.488,0.802,3.822   c0.292,1.373,0.584,2.751,0.828,3.948c0.055,0.271-0.12,0.534-0.391,0.59C19.307,8.767,19.272,8.77,19.239,8.77z" fill="#000000"/>
	<path d="M31.21,9.43c-0.075,0-0.15-0.017-0.222-0.052c-0.247-0.122-0.349-0.422-0.227-0.67l2.68-5.4   c0.123-0.248,0.425-0.346,0.67-0.227c0.247,0.122,0.349,0.422,0.227,0.67l-2.68,5.4C31.571,9.328,31.393,9.43,31.21,9.43z" fill="#000000"/>
</g>
</g></g></g><!--ITEM 3--><g><defs><clipPath id="clip-path-id-viewbox-item-3"><rect x="0.0" y="0.0" width="40.95" height="40.575"/></clipPath></defs><g transform="translate(113.0 612.0) rotate(-152.67325306800993 98.5 98.5) scale(4.8107448107448105 4.855206407886629)"><g clip-path="url(#clip-path-id-viewbox-item-3)" transform="translate(-0.0 -0.0)"><g>
	<path style="fill:#FFD249;" d="M38.77,17.76c1.19,2.94,1.5,6.24,0.84,9.34c-1.23,5.75-5.94,10.6-11.64,12   c-12.68,3.12-24.63-9.7-19.1-21.93c1.93-4.29,5.87-7.56,10.37-8.9c1.54-0.47,3.16-0.7,4.78-0.67C30.34,7.73,36.4,11.9,38.77,17.76z    M27.2,26.09c1.26-1.57,1.07-4.11-0.42-5.47c-1.49-1.36-4.03-1.32-5.48,0.08c-1.45,1.4-1.57,3.94-0.27,5.47   C22.72,28.44,25.94,27.66,27.2,26.09z"/>
	<path d="M26.78,20.62c1.49,1.36,1.68,3.9,0.42,5.47c-1.26,1.57-4.48,2.35-6.17,0.08c-1.3-1.53-1.18-4.07,0.27-5.47   C22.75,19.3,25.29,19.26,26.78,20.62z" fill="#000000"/>
	<path d="M24.048,40.578c-5.161,0-10.136-2.315-13.621-6.506c-4.177-5.022-5.1-11.495-2.468-17.314   c2.008-4.463,6.118-7.993,10.996-9.445c1.647-0.503,3.356-0.751,5.084-0.712c6.708,0.138,13.146,4.573,15.658,10.785   c1.27,3.137,1.586,6.66,0.892,9.923c-1.313,6.138-6.289,11.267-12.381,12.763C26.825,40.412,25.43,40.578,24.048,40.578z    M23.732,8.597c-1.422,0-2.833,0.212-4.2,0.629c-4.335,1.291-7.978,4.413-9.75,8.354c0,0.001-0.001,0.001-0.001,0.002   c-2.309,5.105-1.492,10.792,2.184,15.212c3.924,4.719,9.97,6.763,15.766,5.336c5.364-1.318,9.745-5.835,10.902-11.238   c0.612-2.876,0.332-5.985-0.789-8.756C35.622,12.643,29.93,8.722,24,8.6C23.911,8.598,23.821,8.597,23.732,8.597z M8.87,17.17h0.01   H8.87z" fill="#000000"/>
	<path d="M0.499,27.94c-0.252,0-0.469-0.189-0.496-0.446c-0.029-0.274,0.169-0.521,0.443-0.551c1.018-0.11,2.288-0.221,3.559-0.331   c1.265-0.109,2.528-0.22,3.541-0.329c0.27-0.029,0.521,0.168,0.551,0.443c0.029,0.274-0.169,0.521-0.443,0.551   c-1.018,0.11-2.29,0.221-3.562,0.331c-1.264,0.11-2.526,0.22-3.538,0.329C0.535,27.939,0.517,27.94,0.499,27.94z" fill="#000000"/>
	<path d="M9.6,15.8c-0.097,0-0.193-0.027-0.279-0.085c-0.83-0.559-2.188-1.385-3.5-2.183c-1.322-0.805-2.689-1.636-3.539-2.207   c-0.229-0.154-0.29-0.465-0.136-0.694c0.155-0.229,0.468-0.288,0.694-0.136c0.83,0.559,2.188,1.385,3.5,2.183   c1.322,0.805,2.689,1.636,3.539,2.207c0.229,0.154,0.29,0.465,0.136,0.694C9.918,15.722,9.76,15.8,9.6,15.8z" fill="#000000"/>
	<path d="M19.239,8.77c-0.232,0-0.44-0.163-0.489-0.4C18.507,7.175,18.215,5.8,17.924,4.43c-0.283-1.337-0.566-2.67-0.804-3.831   c-0.055-0.271,0.12-0.534,0.391-0.59c0.266-0.058,0.534,0.12,0.59,0.391c0.236,1.158,0.519,2.488,0.802,3.822   c0.292,1.373,0.584,2.751,0.828,3.948c0.055,0.271-0.12,0.534-0.391,0.59C19.307,8.767,19.272,8.77,19.239,8.77z" fill="#000000"/>
	<path d="M31.21,9.43c-0.075,0-0.15-0.017-0.222-0.052c-0.247-0.122-0.349-0.422-0.227-0.67l2.68-5.4   c0.123-0.248,0.425-0.346,0.67-0.227c0.247,0.122,0.349,0.422,0.227,0.67l-2.68,5.4C31.571,9.328,31.393,9.43,31.21,9.43z" fill="#000000"/>
</g>
</g></g></g><!--ITEM 4--><g><defs><clipPath id="clip-path-id-viewbox-item-4"><rect x="0.0" y="0.0" width="344.937" height="399.829"/></clipPath></defs><g transform="translate(449.0 746.0) rotate(123.27404306851597 -119.0 138.0) scale(-0.6899810690068041 0.6902951011557441)"><g clip-path="url(#clip-path-id-viewbox-item-4)" transform="translate(-0.0 -0.0)"><g>
	<path style="fill:#1E5C9A;" d="M340.855,71.109c-7.15-23.98-25.79-43.55-48-55.08c-22.2-11.53-47.69-15.6-72.71-15.26   c-61.09,0.81-121.36,28.13-162.26,73.51c-40.89,45.39-61.79,108.18-56.26,169.03c5.24,57.69,32.4,112.52,76.47,149.82   c2.41,2.04,4.86,4.02,7.37,5.95l40.56-59.81c0,0-44.91-24.43-60.57-52.46c-0.01-0.02-0.02-0.04-0.03-0.06   c-24.44-52.29-19.98-118.1,11.86-166.24c31.84-48.14,90.98-77.88,148.66-75.86l0.11,0.09c-9.19,11.72-14.78,26.23-16.03,41.07   c5.97-1.5,12.7,0.62,16.74,5.26c4.08,4.7,5.21,11.76,2.8,17.5c-2.4,5.73-8.23,9.87-14.44,10.25l-0.17,0.08   c2.25,5.37,5.31,10.36,9.29,14.58c0.46,0.5,0.94,0.98,1.43,1.45c7.79,7.5,19.04,11.78,29.65,9.7c4.1-0.8,8.13-2.6,10.92-5.72   c1.9-2.13,3.12-4.95,3.27-7.77c0.07-1.31-0.1-2.62-0.54-3.87c-1.38-3.95-5.64-4.66-9.34-6.11c-10.48-4.68-17.89-15.58-18.4-27.05   c-0.51-11.47,5.92-22.97,15.94-28.57c10.03-5.59,23.2-5,32.69,1.46c8.7,5.92,13.93,16.52,13.58,27.01   c-0.03,0.96-0.11,1.91-0.24,2.86c-1.52,11.38-8.88,22.03-18.55,24.74c-2.08,0.62-5.22,1.09-7.25,1.18   c-0.34,0.02-0.66,0.05-0.98,0.1c-4.8,0.83-6.71,5.89-6.83,8.25c-0.01,0.13-0.01,0.25-0.01,0.36c0.92,7.77,7.72,9.93,13.18,10.66   c5.47,0.73,10.88-1.07,16.02-3.07c3.92-1.52,7.29-3.53,10.22-5.92l0.03,0.04c2.38,3.53,7.07,5.05,11.28,4.37   c4.2-0.69,7.9-3.28,10.72-6.47s4.87-6.97,6.9-10.72c4.08-8.47,6.07-17.28,6.24-26.25C344.315,86.54,343.145,78.819,340.855,71.109z   "/>
	<path style="fill:#DB968E;" d="M226.76,91.069c4.08,4.7,5.21,11.76,2.8,17.5c-2.4,5.73-8.23,9.87-14.44,10.25l-0.17,0.08h-0.01   c-1.68-3.99-2.93-8.19-3.78-12.42c-1.37-6.8-1.72-13.77-1.14-20.67C215.99,84.309,222.72,86.429,226.76,91.069z"/>
	<g>
		<path d="M85.465,399.829c-0.164,0-0.325-0.054-0.457-0.155c-2.481-1.907-4.97-3.917-7.397-5.972    C34.185,356.947,6.217,302.155,0.879,243.377c-5.528-60.824,15.575-124.226,56.45-169.6C98.224,28.401,159.087,0.829,220.135,0.02    c28.144-0.366,52.725,4.78,73.066,15.344c23.922,12.42,41.553,32.66,48.373,55.532c2.361,7.95,3.489,15.775,3.351,23.258    c-0.176,9.294-2.3,18.23-6.314,26.562c-0.18,0.373-0.629,0.53-1.001,0.351c-0.373-0.18-0.53-0.628-0.35-1.001    c3.919-8.136,5.994-16.863,6.166-25.939c0.135-7.328-0.971-15-3.289-22.802c-6.704-22.484-24.063-42.396-47.627-54.628    C272.391,6.247,248.041,1.164,220.155,1.52C159.517,2.323,99.064,29.711,58.443,74.781c-40.6,45.068-61.561,108.045-56.07,168.46    c5.303,58.39,33.08,112.813,76.208,149.316c2.204,1.865,4.459,3.693,6.712,5.44l39.653-58.472    c-5.863-3.305-45.65-26.407-60.145-52.351c-0.009-0.017-0.047-0.092-0.055-0.108c-12.069-25.822-17.341-55.231-15.244-85.047    c2.104-29.914,11.495-58.243,27.158-81.925c15.643-23.65,38.094-43.359,64.926-56.995c26.684-13.559,55.863-20.189,84.386-19.201    c0.414,0.015,0.738,0.362,0.723,0.776c-0.014,0.415-0.345,0.756-0.776,0.724C167.7,43.328,109.603,73.006,77.911,120.924    c-31.737,47.984-36.372,112.95-11.806,165.509c15.382,27.533,59.832,51.935,60.279,52.178c0.186,0.102,0.32,0.276,0.37,0.482    c0.05,0.205,0.011,0.423-0.108,0.598l-40.56,59.81c-0.116,0.171-0.298,0.287-0.501,0.319    C85.545,399.826,85.505,399.829,85.465,399.829z" fill="#000000"/>
	</g>
	<path d="M318.296,138.49c-4.033,0-7.835-1.818-9.888-4.862c-0.232-0.343-0.141-0.81,0.202-1.041   c0.342-0.231,0.81-0.141,1.041,0.203c2.092,3.101,6.328,4.725,10.539,4.049c4.616-0.759,8.137-3.806,10.277-6.228   c2.772-3.134,4.821-6.919,6.803-10.58c0.197-0.364,0.653-0.5,1.017-0.302c0.364,0.197,0.5,0.652,0.303,1.017   c-2.022,3.734-4.113,7.597-6.998,10.859c-2.302,2.604-6.106,5.883-11.16,6.714C319.719,138.435,319.004,138.49,318.296,138.49z" fill="#000000"/>
	<path d="M284.65,122.358c-0.328,0-0.629-0.217-0.722-0.548c-0.112-0.398,0.121-0.813,0.52-0.925   c9.046-2.534,16.451-12.452,18.01-24.117c0.126-0.923,0.205-1.859,0.233-2.783c0.344-10.306-4.858-20.654-13.252-26.366   c-9.279-6.317-22.1-6.89-31.903-1.425c-9.802,5.478-16.054,16.683-15.556,27.881c0.499,11.216,7.715,21.825,17.957,26.398   c0.378,0.169,0.548,0.612,0.379,0.99c-0.169,0.379-0.612,0.551-0.991,0.379c-10.747-4.799-18.32-15.932-18.843-27.701   c-0.522-11.751,6.037-23.509,16.323-29.257c10.288-5.735,23.741-5.134,33.478,1.494c8.809,5.994,14.268,16.85,13.907,27.655   c-0.03,0.975-0.113,1.963-0.246,2.936c-1.635,12.239-9.485,22.669-19.091,25.361C284.785,122.35,284.717,122.358,284.65,122.358z" fill="#000000"/>
	<path d="M285.286,143.072c-0.872,0-1.748-0.054-2.625-0.171c-8.418-1.124-13.07-4.932-13.825-11.314   c-0.049-0.411,0.245-0.784,0.657-0.833c0.407-0.052,0.784,0.245,0.833,0.657c0.674,5.694,4.774,8.967,12.534,10.004   c5.41,0.728,10.914-1.183,15.648-3.025c3.674-1.425,7.044-3.377,10.018-5.802c5.516-4.486,10.009-10.815,13.737-19.349   c4.556-10.413,6-22.45,4.175-34.812c-0.06-0.41,0.223-0.791,0.633-0.852c0.405-0.052,0.791,0.222,0.852,0.633   c1.865,12.64,0.383,24.961-4.285,35.631c-3.825,8.758-8.458,15.271-14.164,19.911c-3.095,2.524-6.602,4.556-10.422,6.037   C294.891,141.407,290.145,143.072,285.286,143.072z" fill="#000000"/>
	<path d="M249.898,145.896c-8.722,0-17.813-3.75-24.748-10.428c-0.5-0.479-0.991-0.971-1.462-1.482   c-3.831-4.062-6.99-9.007-9.386-14.695c-0.02-0.032-0.038-0.066-0.053-0.102c-1.65-3.919-2.937-8.146-3.824-12.563   c-1.361-6.756-1.749-13.781-1.152-20.88c1.267-15.047,7.016-29.774,16.187-41.471c1.717-2.196,3.552-4.29,5.456-6.223   c0.291-0.296,0.765-0.3,1.061-0.008c0.295,0.29,0.299,0.766,0.008,1.061c-1.863,1.892-3.661,3.942-5.344,6.095   c-8.993,11.47-14.63,25.913-15.874,40.671c-0.585,6.958-0.205,13.842,1.128,20.459c0.86,4.282,2.103,8.378,3.693,12.176   c0.02,0.032,0.038,0.066,0.053,0.103c2.332,5.564,5.408,10.395,9.144,14.355c0.456,0.495,0.925,0.965,1.403,1.424   c8.085,7.783,19.19,11.427,28.987,9.505c3.095-0.604,7.43-2.045,10.505-5.484c1.819-2.038,2.941-4.703,3.08-7.31   c0.067-1.247-0.101-2.451-0.499-3.581c-1.011-2.896-3.842-3.876-6.839-4.914c-0.694-0.24-1.39-0.481-2.068-0.747   c-0.386-0.151-0.576-0.586-0.425-0.972s0.586-0.576,0.972-0.425c0.659,0.258,1.336,0.492,2.011,0.727   c3.202,1.108,6.513,2.255,7.763,5.835c0.463,1.313,0.658,2.713,0.581,4.157c-0.157,2.94-1.417,5.939-3.459,8.229   c-3.354,3.751-8.016,5.311-11.336,5.958C253.643,145.722,251.779,145.896,249.898,145.896z" fill="#000000"/>
	<path d="M269.581,132.249c-0.414,0-0.75-0.336-0.75-0.75c0-0.128,0.001-0.268,0.012-0.418c0.127-2.503,2.117-8.009,7.45-8.932   c0.356-0.056,0.7-0.088,1.065-0.109c1.841-0.082,4.941-0.513,7.079-1.15c0.399-0.116,0.815,0.108,0.933,0.505   c0.118,0.396-0.107,0.814-0.504,0.933c-2.252,0.672-5.51,1.125-7.431,1.211c-0.305,0.018-0.602,0.046-0.898,0.092   c-4.385,0.758-6.092,5.5-6.196,7.547c-0.01,0.129-0.009,0.229-0.009,0.322C270.331,131.913,269.995,132.249,269.581,132.249z" fill="#000000"/>
	<path d="M215.12,119.068c-0.131,0-0.241-0.103-0.249-0.234c-0.009-0.138,0.096-0.257,0.234-0.266   c6.136-0.375,11.853-4.433,14.225-10.097c2.38-5.669,1.272-12.597-2.758-17.239c-3.985-4.575-10.613-6.654-16.49-5.182   c-0.068,0.013-0.116,0.021-0.163,0.035c-0.131,0.049-0.272-0.028-0.315-0.16c-0.043-0.131,0.029-0.271,0.16-0.314   c0.072-0.024,0.145-0.038,0.218-0.05c6.036-1.519,12.863,0.628,16.969,5.343c4.152,4.783,5.294,11.921,2.842,17.761   c-2.444,5.836-8.334,10.017-14.655,10.403C215.13,119.068,215.125,119.068,215.12,119.068z" fill="#000000"/>
</g>
</g></g></g><!--ITEM 5--><g><defs><clipPath id="clip-path-id-viewbox-item-5"><rect x="0.0" y="0.0" width="294.31656" height="294.3156"/></clipPath></defs><g transform="translate(262.0 395.0) rotate(-32.39181088106106 224.5 224.5) scale(1.5255682520888394 1.5255732281944958)"><g clip-path="url(#clip-path-id-viewbox-item-5)" transform="translate(-0.0 -0.0)"><g>
    <path d="M33.62943,262.18613a1.5,1.5,0,0,1-1.06055-2.56055L180.045,112.14951a1.49984,1.49984,0,0,1,2.1211,2.12109L34.69,261.74668A1.4951,1.4951,0,0,1,33.62943,262.18613Z" fill="#000000"/>
    <g>
      <rect x="-1.91267" y="262.75279" width="50.37868" height="16.57228" rx="2.76202" transform="translate(-184.83589 95.84456) rotate(-45)" style="         fill: #ffd14a;       "/>
      <path d="M11.32425,294.31357a3.50115,3.50115,0,0,1-2.4834-1.02685l-7.812-7.812a3.51553,3.51553,0,0,1,0-4.9668l31.7168-31.7168a3.51642,3.51642,0,0,1,4.9668,0l7.812,7.812a3.51553,3.51553,0,0,1,0,4.9668l-31.7168,31.7168A3.50113,3.50113,0,0,1,11.32425,294.31357ZM35.229,249.26328a2.00663,2.00663,0,0,0-1.42285.58838l-31.7168,31.7168a2.0143,2.0143,0,0,0,0,2.8457l7.812,7.812a2.01519,2.01519,0,0,0,2.8457,0l31.7168-31.7168a2.0143,2.0143,0,0,0,0-2.8457l-7.812-7.812A2.00665,2.00665,0,0,0,35.229,249.26328Z" fill="#000000"/>
    </g>
    <g>
      <g>
        <path d="M284.8676,221.29624c4.72306,16.13022,4.06017,28.72506-3.01061,35.782-4.9164,4.9164-12.512,6.72553-22.11,5.78644l-14.29347-27.20594a54.0135,54.0135,0,0,0,16.47547-6.00741c8.00988-4.48828,10.4957-12.63626,9.91567-21.94428l13.02295,13.57535Z" style="         fill: #e64337;       "/>
        <path d="M284.8676,221.28243l-13.02295-13.57535c-1.03576-17.04169-12.38768-37.9226-18.87844-46.982l.13811-.09667C268.88929,183.23554,279.88214,204.24074,284.8676,221.28243Z" style="         fill: #e64337;       "/>
        <path d="M271.84465,207.70708c.58,9.308-1.90579,17.456-9.91567,21.94428a54.0135,54.0135,0,0,1-16.47547,6.00741L186.60858,123.7001a4.71223,4.71223,0,0,0,4.08779-.49716Z" style="         fill: #f85750;       "/>
        <path d="M271.84465,207.70708l-81.14828-84.50414c.06905-.06905.1381-.12429.20715-.19334,1.14624-1.14624,1.17386-3.23157.2624-5.676l42.259,17.35932c7.18126,8.78324,13.76869,17.48362,19.67943,25.93541l-.13811.09667C259.457,169.78448,270.80889,190.66539,271.84465,207.70708Z" style="         fill: #f85750;       "/>
        <path d="M245.45351,235.65877,259.747,262.86471c-16.95883-1.65721-40.18745-11.91814-65.98476-28.89078l-.75956-7.29174C209.11908,233.90488,227.63845,239.13892,245.45351,235.65877Z" style="         fill: #e64337;       "/>
        <path d="M186.60858,123.7001l58.84493,111.95867c-17.81506,3.48015-36.33443-1.75389-52.45085-8.97658l-11.02048-105.026A16.45244,16.45244,0,0,0,186.60858,123.7001Z" style="         fill: #f85750;       "/>
        <path d="M233.42489,134.693l-42.259-17.35932a22.65181,22.65181,0,0,0-3.89446-6.38028l18.94749-6.89125C216.02414,114.2816,225.125,124.55633,233.42489,134.693Z" style="         fill: #f85750;       "/>
        <path d="M206.219,104.06211l-18.94749,6.89125c-.58-.69051-1.20148-1.3672-1.87818-2.0439s-1.35339-1.29815-2.04389-1.87817l6.90506-18.93368q4.03946,3.87373,8.06511,7.89939Q202.3383,100.01574,206.219,104.06211Z" style="         fill: #f85750;       "/>
        <path d="M193.00266,226.68219l.75956,7.29174a412.34341,412.34341,0,0,1-35.45059-26.29447C166.69438,212.58205,178.944,220.38477,193.00266,226.68219Z" style="         fill: #e64337;       "/>
        <path d="M181.98218,121.65621l11.02048,105.026c-14.0587-6.29742-26.30828-14.10014-34.691-19.00273q-5.36523-4.41234-10.7857-9.1423l31.18326-79.27011A26.87074,26.87074,0,0,0,181.98218,121.65621Z" style="         fill: #f85750;       "/>
        <path d="M191.16592,117.33364c.91146,2.44439.88384,4.52972-.2624,5.676-.069.069-.1381.12429-.20715.19334a4.71223,4.71223,0,0,1-4.08779.49716,16.45244,16.45244,0,0,1-4.6264-2.04389,26.87074,26.87074,0,0,1-3.273-2.38916c-.63527-.53859-1.28435-1.13243-1.9058-1.75388-.63527-.63527-1.21529-1.27053-1.7677-1.91961a26.87147,26.87147,0,0,1-2.38915-3.273,16.45244,16.45244,0,0,1-2.0439-4.62639,4.72028,4.72028,0,0,1,.49717-4.08779c.06905-.06906.12429-.13811.19334-.20716,1.14624-1.14624,3.21776-1.16,5.676-.24858a22.577,22.577,0,0,1,6.38028,3.88065c.6905.58,1.3672,1.20148,2.04389,1.87817s1.29816,1.35339,1.87818,2.0439A22.65181,22.65181,0,0,1,191.16592,117.33364Z" style="         fill: #ffd14a;       "/>
        <path d="M190.25445,88.09761l-6.90506,18.93368a22.577,22.577,0,0,0-6.38028-3.88065L159.596,60.87786C169.74642,69.16393,180.02115,78.27861,190.25445,88.09761Z" style="         fill: #ff736b;       "/>
        <path d="M178.70919,119.26705l-31.18326,79.27011c-8.90753-7.7751-17.8703-16.13022-26.75021-25.01013s-17.235-17.82887-24.99632-26.75021l79.25629-31.18326c.55241.64908,1.13243,1.28434,1.7677,1.91961C177.42484,118.13462,178.07392,118.72846,178.70919,119.26705Z" style="         fill: #f85750;       "/>
        <path d="M159.596,60.87786l17.37313,42.27278c-2.4582-.91147-4.52972-.89766-5.676.24858-.06905.06905-.12429.1381-.19334.20716L73.00651,9.43515C96.42847,16.285,127.32172,34.4729,159.596,60.87786Z" style="         fill: #f85750;       "/>
        <path d="M175.03569,115.59356,95.7794,146.77682a431.77875,431.77875,0,0,1-35.43678-46.22248l112.30392,11.76622A26.87147,26.87147,0,0,0,175.03569,115.59356Z" style="         fill: #ff736b;       "/>
        <path d="M172.64654,112.32056,60.34262,100.55434C43.37,74.757,33.10906,51.5284,31.45185,34.56957l139.15079,73.1246A16.45244,16.45244,0,0,0,172.64654,112.32056Z" style="         fill: #f85750;       "/>
        <path d="M73.00651,9.43515l98.0933,94.17123a4.72028,4.72028,0,0,0-.49717,4.08779L31.45185,34.56957c-.9529-9.61184.87-17.20741,5.78644-22.12381C44.29526,5.38878,56.89009,4.7259,73.00651,9.43515Z" style="         fill: #ff736b;       "/>
      </g>
      <g>
        <path d="M264.45853,263.85508q-2.29248,0-4.78467-.24366c-16.835-1.6455-40.38916-11.94824-66.32373-29.01123A413.06779,413.06779,0,0,1,157.835,208.2584c-3.62841-2.98389-7.26269-6.06446-10.80224-9.15625-9.09033-7.93408-18.103-16.36035-26.78711-25.04492-8.81543-8.815-17.23731-17.82813-25.03223-26.78809A431.50211,431.50211,0,0,1,59.71585,100.9664C42.65335,75.03183,32.35062,51.47764,30.70511,34.64219c-1.00049-10.0962,1.019-17.74268,6.00293-22.72657,7.021-7.021,19.64551-8.12841,36.50879-3.20019,23.89258,6.9873,54.73779,25.30615,86.854,51.582,10.19873,8.32568,20.52881,17.49707,30.70264,27.25928,2.68408,2.57373,5.40137,5.23535,8.07617,7.91015s5.33643,5.39209,7.91065,8.07618c9.63623,10.04345,18.80273,20.36425,27.24463,30.6748,7.08447,8.66455,13.71728,17.40576,19.71435,25.981,15.83154,22.67431,26.85156,43.72363,31.86817,60.873a.68212.68212,0,0,1,.01806.07569c4.91992,16.84179,3.80713,29.44922-3.21875,36.46142C278.23392,261.76182,272.21585,263.85459,264.45853,263.85508ZM54.69486,7.18125c-7.34229,0-13.06934,1.93848-16.92627,5.79492-4.65039,4.65088-6.5249,11.89063-5.5708,21.51953,1.62207,16.59815,11.83984,39.91162,28.77148,65.64649a429.90757,429.90757,0,0,0,35.375,46.1416c7.773,8.93506,16.17139,17.92187,24.96192,26.71289,8.66064,8.66064,17.64794,17.06347,26.71289,24.97558,3.5288,3.082,7.15185,6.15332,10.769,9.12793a411.62855,411.62855,0,0,0,35.38574,26.24659c25.73535,16.93212,49.04883,27.1499,65.646,28.77148,9.63476.94434,16.86865-.93164,21.50683-5.57031,6.62305-6.61035,7.59815-18.72705,2.82129-35.04053a.717.717,0,0,1-.01806-.07617c-4.98047-16.9834-15.92041-37.85889-31.64014-60.37354-5.97559-8.54394-12.58545-17.25488-19.64551-25.89013-8.417-10.27979-17.55762-20.5708-27.1665-30.58643-2.56739-2.67627-5.22119-5.38623-7.88867-8.05371s-5.37745-5.32129-8.05372-7.88818c-10.1455-9.73487-20.44531-18.8794-30.61376-27.18018C127.15726,35.30674,96.49954,17.087,72.79593,10.15488A65.63845,65.63845,0,0,0,54.69486,7.18125Z" fill="#000000"/>
        <path d="M171.09964,104.10654a.499.499,0,0,1-.34619-.13916L63.35208.86094a.50006.50006,0,0,1,.69239-.72168L171.44583,103.2457a.5.5,0,0,1-.34619.86084Z" fill="#000000"/>
        <path d="M176.96927,103.65049a.5002.5002,0,0,1-.4624-.31006l-22.55225-54.895a.4999.4999,0,0,1,.92481-.37988l22.55224,54.895a.50013.50013,0,0,1-.4624.68994Z" fill="#000000"/>
        <path d="M183.34915,107.53135a.5.5,0,0,1-.46972-.67139l9.94336-27.27441a.49985.49985,0,0,1,.93945.34179l-9.94336,27.27539A.50053.50053,0,0,1,183.34915,107.53135Z" fill="#000000"/>
        <path d="M80.51908,153.28428a.5.5,0,0,1-.18311-.96534l94.5166-37.19091a.50006.50006,0,1,1,.36621.93066l-94.5166,37.19092A.503.503,0,0,1,80.51908,153.28428Z" fill="#000000"/>
        <path d="M172.647,112.82041a.49163.49163,0,0,1-.05274-.00293L44.09134,99.35264a.49968.49968,0,0,1-.44482-.54932.49221.49221,0,0,1,.54931-.44483l128.50293,13.46485a.49991.49991,0,0,1-.05175.99707Z" fill="#000000"/>
        <path d="M170.60208,108.19394a.49717.49717,0,0,1-.23193-.05761L21.92484,30.12314a.49995.49995,0,0,1,.46582-.88476L31.6846,34.127,170.835,107.25156a.49992.49992,0,0,1-.23291.94238Z" fill="#000000"/>
        <path d="M284.86771,221.78232a.49774.49774,0,0,1-.36084-.15381l-13.02295-13.57519-81.14844-84.5044a.50005.50005,0,1,1,.72168-.69238l81.14844,84.5044,13.02295,13.57519a.5.5,0,0,1-.36084.84619Z" fill="#000000"/>
        <path d="M284.86771,222.03965a.74439.74439,0,0,1-.75-.74317v-.01416a.75.75,0,1,1,.75.75733Z" fill="#000000"/>
        <path d="M293.81644,231.1041a.49808.49808,0,0,1-.36035-.15332l-8.94873-9.30762a.5.5,0,1,1,.7207-.69336l8.94873,9.30762a.5.5,0,0,1-.36035.84668Z" fill="#000000"/>
        <path d="M246.06107,140.38535a.5007.5007,0,0,1-.18994-.0376l-54.895-22.55176a.49989.49989,0,0,1,.37988-.9248l54.895,22.55176a.5.5,0,0,1-.18994.9624Z" fill="#000000"/>
        <path d="M187.27152,111.45322a.49995.49995,0,0,1-.1709-.96973L214.375,100.5543a.5.5,0,1,1,.34278.93945l-27.27539,9.9292A.50086.50086,0,0,1,187.27152,111.45322Z" fill="#000000"/>
        <path d="M141.51859,214.2833a.49992.49992,0,0,1-.46533-.68311l37.19043-94.51611a.50006.50006,0,1,1,.93066.36621L141.98392,213.9664A.50047.50047,0,0,1,141.51859,214.2833Z" fill="#000000"/>
        <path d="M195.46048,250.67344a.49972.49972,0,0,1-.49658-.44776l-13.479-128.51709a.49981.49981,0,0,1,.99414-.10449l13.479,128.51709a.49968.49968,0,0,1-.44482.54932A.48476.48476,0,0,1,195.46048,250.67344Z" fill="#000000"/>
        <path d="M264.62259,272.64512a.50075.50075,0,0,1-.44336-.26758L186.16605,123.93271a.49972.49972,0,0,1,.88476-.46484L265.065,271.91269a.49989.49989,0,0,1-.44238.73243Z" fill="#000000"/>
        <path d="M233.65335,237.025c-12.207,0-25.65332-3.34766-40.75293-10.11475a281.34252,281.34252,0,0,1-29.67382-16.02148c-1.8042-1.07862-3.48926-2.08594-5.041-2.99365a.28919.28919,0,0,1-.12744-.35743.22008.22008,0,0,1,.29931-.12207c.00831.0044.04981.0293.05713.03418,1.57666.92237,3.2627,1.93018,5.06885,3.00977a280.99389,280.99389,0,0,0,29.6211,15.99463c20.05273,8.98633,37.15966,11.91894,52.30126,8.959a54.0006,54.0006,0,0,0,16.4004-5.97949c7.144-4.00293,10.4375-11.30762,9.78906-21.71094-1.002-16.48926-11.811-37.05273-18.832-46.852a.24986.24986,0,1,1,.40625-.291c7.05468,9.84619,17.9165,30.51806,18.9248,47.1123.66113,10.61133-2.71777,18.07275-10.04346,22.17774a54.50459,54.50459,0,0,1-16.55029,6.03466A61.64764,61.64764,0,0,1,233.65335,237.025Z" fill="#000000"/>
        <path d="M188.335,124.66807a8.39127,8.39127,0,0,1-1.89746-.23731,17.29315,17.29315,0,0,1-4.84765-2.13525,27.597,27.597,0,0,1-3.36573-2.45606c-.67773-.57471-1.33447-1.17871-1.95117-1.7959-.62109-.62109-1.21289-1.26367-1.80859-1.96435a27.64316,27.64316,0,0,1-2.45654-3.36572,17.24906,17.24906,0,0,1-2.13477-4.8462c-.46729-1.99853-.24463-3.63427.64355-4.73242l.24415-.26416c1.32861-1.32763,3.625-1.478,6.46923-.42334a23.26587,23.26587,0,0,1,6.6001,4.0083c.71436.6001,1.39893,1.22852,2.09326,1.92334.69385.69385,1.32276,1.37793,1.92237,2.0918a23.33028,23.33028,0,0,1,4.02343,6.60205c1.05616,2.834.90137,5.13037-.43554,6.4668-.04395.04443-.08936.08593-.13526.127l-.07373.06836A4.41047,4.41047,0,0,1,188.335,124.66807Zm-14.501-21.415a2.7635,2.7635,0,0,0-2.01074.67627l-.19336.20752c-.688.85742-.54639,2.32031-.29688,3.38623a15.76672,15.76672,0,0,0,1.95264,4.40527,26.11959,26.11959,0,0,0,2.32177,3.17969c.56885.66894,1.13379,1.28271,1.72608,1.875.58789.58789,1.21387,1.16406,1.86035,1.71191a26.12306,26.12306,0,0,0,3.18115,2.32275,15.805,15.805,0,0,0,4.40674,1.95313,4.05375,4.05375,0,0,0,3.43848-.34766l.15088-.14209c.88672-.88623.91943-2.666.09228-4.88574l-.00049-.001a21.83566,21.83566,0,0,0-3.76709-6.16015c-.56982-.67871-1.16992-1.33154-1.833-1.99463-.66358-.66357-1.31641-1.26318-1.9961-1.834a21.76784,21.76784,0,0,0-6.1582-3.752A8.50234,8.50234,0,0,0,173.834,103.253Z" fill="#000000"/>
      </g>
    </g>
  </g>
</g></g></g><!--ITEM 6--><g><defs><clipPath id="clip-path-id-crop-item-6"><rect transform="scale(1.4493151260504202 1.4486557971014493)" x="125.0" y="0.0" width="66" height="125.0"/></clipPath><clipPath id="clip-path-id-viewbox-item-6"><rect x="0.0" y="0.0" width="344.937" height="399.829"/></clipPath></defs><g clip-path="url(#clip-path-id-crop-item-6)" transform="translate(449.0 746.0) rotate(123.27404306851597 -119.0 138.0) scale(-0.6899810690068041 0.6902951011557441)"><g clip-path="url(#clip-path-id-viewbox-item-6)" transform="translate(-0.0 -0.0)"><g>
	<path style="fill:#1E5C9A;" d="M340.855,71.109c-7.15-23.98-25.79-43.55-48-55.08c-22.2-11.53-47.69-15.6-72.71-15.26   c-61.09,0.81-121.36,28.13-162.26,73.51c-40.89,45.39-61.79,108.18-56.26,169.03c5.24,57.69,32.4,112.52,76.47,149.82   c2.41,2.04,4.86,4.02,7.37,5.95l40.56-59.81c0,0-44.91-24.43-60.57-52.46c-0.01-0.02-0.02-0.04-0.03-0.06   c-24.44-52.29-19.98-118.1,11.86-166.24c31.84-48.14,90.98-77.88,148.66-75.86l0.11,0.09c-9.19,11.72-14.78,26.23-16.03,41.07   c5.97-1.5,12.7,0.62,16.74,5.26c4.08,4.7,5.21,11.76,2.8,17.5c-2.4,5.73-8.23,9.87-14.44,10.25l-0.17,0.08   c2.25,5.37,5.31,10.36,9.29,14.58c0.46,0.5,0.94,0.98,1.43,1.45c7.79,7.5,19.04,11.78,29.65,9.7c4.1-0.8,8.13-2.6,10.92-5.72   c1.9-2.13,3.12-4.95,3.27-7.77c0.07-1.31-0.1-2.62-0.54-3.87c-1.38-3.95-5.64-4.66-9.34-6.11c-10.48-4.68-17.89-15.58-18.4-27.05   c-0.51-11.47,5.92-22.97,15.94-28.57c10.03-5.59,23.2-5,32.69,1.46c8.7,5.92,13.93,16.52,13.58,27.01   c-0.03,0.96-0.11,1.91-0.24,2.86c-1.52,11.38-8.88,22.03-18.55,24.74c-2.08,0.62-5.22,1.09-7.25,1.18   c-0.34,0.02-0.66,0.05-0.98,0.1c-4.8,0.83-6.71,5.89-6.83,8.25c-0.01,0.13-0.01,0.25-0.01,0.36c0.92,7.77,7.72,9.93,13.18,10.66   c5.47,0.73,10.88-1.07,16.02-3.07c3.92-1.52,7.29-3.53,10.22-5.92l0.03,0.04c2.38,3.53,7.07,5.05,11.28,4.37   c4.2-0.69,7.9-3.28,10.72-6.47s4.87-6.97,6.9-10.72c4.08-8.47,6.07-17.28,6.24-26.25C344.315,86.54,343.145,78.819,340.855,71.109z   "/>
	<path style="fill:#DB968E;" d="M226.76,91.069c4.08,4.7,5.21,11.76,2.8,17.5c-2.4,5.73-8.23,9.87-14.44,10.25l-0.17,0.08h-0.01   c-1.68-3.99-2.93-8.19-3.78-12.42c-1.37-6.8-1.72-13.77-1.14-20.67C215.99,84.309,222.72,86.429,226.76,91.069z"/>
	<g>
		<path d="M85.465,399.829c-0.164,0-0.325-0.054-0.457-0.155c-2.481-1.907-4.97-3.917-7.397-5.972    C34.185,356.947,6.217,302.155,0.879,243.377c-5.528-60.824,15.575-124.226,56.45-169.6C98.224,28.401,159.087,0.829,220.135,0.02    c28.144-0.366,52.725,4.78,73.066,15.344c23.922,12.42,41.553,32.66,48.373,55.532c2.361,7.95,3.489,15.775,3.351,23.258    c-0.176,9.294-2.3,18.23-6.314,26.562c-0.18,0.373-0.629,0.53-1.001,0.351c-0.373-0.18-0.53-0.628-0.35-1.001    c3.919-8.136,5.994-16.863,6.166-25.939c0.135-7.328-0.971-15-3.289-22.802c-6.704-22.484-24.063-42.396-47.627-54.628    C272.391,6.247,248.041,1.164,220.155,1.52C159.517,2.323,99.064,29.711,58.443,74.781c-40.6,45.068-61.561,108.045-56.07,168.46    c5.303,58.39,33.08,112.813,76.208,149.316c2.204,1.865,4.459,3.693,6.712,5.44l39.653-58.472    c-5.863-3.305-45.65-26.407-60.145-52.351c-0.009-0.017-0.047-0.092-0.055-0.108c-12.069-25.822-17.341-55.231-15.244-85.047    c2.104-29.914,11.495-58.243,27.158-81.925c15.643-23.65,38.094-43.359,64.926-56.995c26.684-13.559,55.863-20.189,84.386-19.201    c0.414,0.015,0.738,0.362,0.723,0.776c-0.014,0.415-0.345,0.756-0.776,0.724C167.7,43.328,109.603,73.006,77.911,120.924    c-31.737,47.984-36.372,112.95-11.806,165.509c15.382,27.533,59.832,51.935,60.279,52.178c0.186,0.102,0.32,0.276,0.37,0.482    c0.05,0.205,0.011,0.423-0.108,0.598l-40.56,59.81c-0.116,0.171-0.298,0.287-0.501,0.319    C85.545,399.826,85.505,399.829,85.465,399.829z" fill="#000000"/>
	</g>
	<path d="M318.296,138.49c-4.033,0-7.835-1.818-9.888-4.862c-0.232-0.343-0.141-0.81,0.202-1.041   c0.342-0.231,0.81-0.141,1.041,0.203c2.092,3.101,6.328,4.725,10.539,4.049c4.616-0.759,8.137-3.806,10.277-6.228   c2.772-3.134,4.821-6.919,6.803-10.58c0.197-0.364,0.653-0.5,1.017-0.302c0.364,0.197,0.5,0.652,0.303,1.017   c-2.022,3.734-4.113,7.597-6.998,10.859c-2.302,2.604-6.106,5.883-11.16,6.714C319.719,138.435,319.004,138.49,318.296,138.49z" fill="#000000"/>
	<path d="M284.65,122.358c-0.328,0-0.629-0.217-0.722-0.548c-0.112-0.398,0.121-0.813,0.52-0.925   c9.046-2.534,16.451-12.452,18.01-24.117c0.126-0.923,0.205-1.859,0.233-2.783c0.344-10.306-4.858-20.654-13.252-26.366   c-9.279-6.317-22.1-6.89-31.903-1.425c-9.802,5.478-16.054,16.683-15.556,27.881c0.499,11.216,7.715,21.825,17.957,26.398   c0.378,0.169,0.548,0.612,0.379,0.99c-0.169,0.379-0.612,0.551-0.991,0.379c-10.747-4.799-18.32-15.932-18.843-27.701   c-0.522-11.751,6.037-23.509,16.323-29.257c10.288-5.735,23.741-5.134,33.478,1.494c8.809,5.994,14.268,16.85,13.907,27.655   c-0.03,0.975-0.113,1.963-0.246,2.936c-1.635,12.239-9.485,22.669-19.091,25.361C284.785,122.35,284.717,122.358,284.65,122.358z" fill="#000000"/>
	<path d="M285.286,143.072c-0.872,0-1.748-0.054-2.625-0.171c-8.418-1.124-13.07-4.932-13.825-11.314   c-0.049-0.411,0.245-0.784,0.657-0.833c0.407-0.052,0.784,0.245,0.833,0.657c0.674,5.694,4.774,8.967,12.534,10.004   c5.41,0.728,10.914-1.183,15.648-3.025c3.674-1.425,7.044-3.377,10.018-5.802c5.516-4.486,10.009-10.815,13.737-19.349   c4.556-10.413,6-22.45,4.175-34.812c-0.06-0.41,0.223-0.791,0.633-0.852c0.405-0.052,0.791,0.222,0.852,0.633   c1.865,12.64,0.383,24.961-4.285,35.631c-3.825,8.758-8.458,15.271-14.164,19.911c-3.095,2.524-6.602,4.556-10.422,6.037   C294.891,141.407,290.145,143.072,285.286,143.072z" fill="#000000"/>
	<path d="M249.898,145.896c-8.722,0-17.813-3.75-24.748-10.428c-0.5-0.479-0.991-0.971-1.462-1.482   c-3.831-4.062-6.99-9.007-9.386-14.695c-0.02-0.032-0.038-0.066-0.053-0.102c-1.65-3.919-2.937-8.146-3.824-12.563   c-1.361-6.756-1.749-13.781-1.152-20.88c1.267-15.047,7.016-29.774,16.187-41.471c1.717-2.196,3.552-4.29,5.456-6.223   c0.291-0.296,0.765-0.3,1.061-0.008c0.295,0.29,0.299,0.766,0.008,1.061c-1.863,1.892-3.661,3.942-5.344,6.095   c-8.993,11.47-14.63,25.913-15.874,40.671c-0.585,6.958-0.205,13.842,1.128,20.459c0.86,4.282,2.103,8.378,3.693,12.176   c0.02,0.032,0.038,0.066,0.053,0.103c2.332,5.564,5.408,10.395,9.144,14.355c0.456,0.495,0.925,0.965,1.403,1.424   c8.085,7.783,19.19,11.427,28.987,9.505c3.095-0.604,7.43-2.045,10.505-5.484c1.819-2.038,2.941-4.703,3.08-7.31   c0.067-1.247-0.101-2.451-0.499-3.581c-1.011-2.896-3.842-3.876-6.839-4.914c-0.694-0.24-1.39-0.481-2.068-0.747   c-0.386-0.151-0.576-0.586-0.425-0.972s0.586-0.576,0.972-0.425c0.659,0.258,1.336,0.492,2.011,0.727   c3.202,1.108,6.513,2.255,7.763,5.835c0.463,1.313,0.658,2.713,0.581,4.157c-0.157,2.94-1.417,5.939-3.459,8.229   c-3.354,3.751-8.016,5.311-11.336,5.958C253.643,145.722,251.779,145.896,249.898,145.896z" fill="#000000"/>
	<path d="M269.581,132.249c-0.414,0-0.75-0.336-0.75-0.75c0-0.128,0.001-0.268,0.012-0.418c0.127-2.503,2.117-8.009,7.45-8.932   c0.356-0.056,0.7-0.088,1.065-0.109c1.841-0.082,4.941-0.513,7.079-1.15c0.399-0.116,0.815,0.108,0.933,0.505   c0.118,0.396-0.107,0.814-0.504,0.933c-2.252,0.672-5.51,1.125-7.431,1.211c-0.305,0.018-0.602,0.046-0.898,0.092   c-4.385,0.758-6.092,5.5-6.196,7.547c-0.01,0.129-0.009,0.229-0.009,0.322C270.331,131.913,269.995,132.249,269.581,132.249z" fill="#000000"/>
	<path d="M215.12,119.068c-0.131,0-0.241-0.103-0.249-0.234c-0.009-0.138,0.096-0.257,0.234-0.266   c6.136-0.375,11.853-4.433,14.225-10.097c2.38-5.669,1.272-12.597-2.758-17.239c-3.985-4.575-10.613-6.654-16.49-5.182   c-0.068,0.013-0.116,0.021-0.163,0.035c-0.131,0.049-0.272-0.028-0.315-0.16c-0.043-0.131,0.029-0.271,0.16-0.314   c0.072-0.024,0.145-0.038,0.218-0.05c6.036-1.519,12.863,0.628,16.969,5.343c4.152,4.783,5.294,11.921,2.842,17.761   c-2.444,5.836-8.334,10.017-14.655,10.403C215.13,119.068,215.125,119.068,215.12,119.068z" fill="#000000"/>
</g>
</g></g></g><!--ITEM 7--><g><defs><clipPath id="clip-path-id-crop-item-7"><rect transform="scale(0.28012707182320445 0.2758924731182796)" x="31" y="38" width="92" height="77"/></clipPath><clipPath id="clip-path-id-viewbox-item-7"><rect x="0.0" y="0.0" width="50.703" height="51.316"/></clipPath></defs><g clip-path="url(#clip-path-id-crop-item-7)" transform="translate(105.0 584.0) rotate(151.65269895976917 90.5 93.0) scale(3.5698084925941265 3.6246005144594275)"><g clip-path="url(#clip-path-id-viewbox-item-7)" transform="translate(-0.0 -0.0)"><g>
	<path style="fill:#ffd249;" d="M43.883,20.796c0.68,4.14,0.27,8.54-1.64,12.28c-0.2,0.39-0.41,0.77-0.64,1.14   c-3.66,5.93-11.06,9.17-18.06,8.7c-15.85-1.06-29.38-19.19-18.77-33.69c1.64-2.25,3.77-4.07,6.18-5.42   c2.52-1.42,5.35-2.33,8.25-2.66c2.94-0.34,5.95-0.09,8.77,0.8c7.6,2.4,13.51,9.12,15.48,16.83   C43.633,19.446,43.773,20.116,43.883,20.796z M25.153,23.416c0-4.24-3.44-7.68-7.69-7.68c-4.24,0-7.68,3.44-7.68,7.68   c0,4.25,3.44,7.69,7.68,7.69C21.713,31.106,25.153,27.666,25.153,23.416z"/>
	<path style="fill:#000000;" d="M17.463,15.736c4.25,0,7.69,3.44,7.69,7.68c0,4.25-3.44,7.69-7.69,7.69c-4.24,0-7.68-3.44-7.68-7.69   C9.783,19.176,13.223,15.736,17.463,15.736z M20.483,23.696c0-2.44-1.97-4.41-4.4-4.41c-2.44,0-4.41,1.97-4.41,4.41   c0,2.43,1.97,4.41,4.41,4.41C18.513,28.106,20.483,26.126,20.483,23.696z"/>
	<path style="fill:#205b9b;" d="M16.083,19.286c2.43,0,4.4,1.97,4.4,4.41c0,2.43-1.97,4.41-4.4,4.41c-2.44,0-4.41-1.98-4.41-4.41   C11.673,21.256,13.643,19.286,16.083,19.286z M18.093,23.916c0-1.16-0.95-2.11-2.11-2.11c-1.17,0-2.11,0.95-2.11,2.11   c0,1.17,0.94,2.11,2.11,2.11C17.143,26.026,18.093,25.086,18.093,23.916z"/>
	<circle style="fill:#ffffff;" cx="15.983" cy="23.916" r="2.11"/>
	<path d="M24.897,43.961c-0.474,0-0.946-0.016-1.422-0.048c-8.991-0.601-17.619-6.555-21.469-14.815   c-3.266-7.006-2.569-14.273,1.96-20.462c1.685-2.313,3.871-4.231,6.498-5.702c2.618-1.475,5.602-2.437,8.625-2.781   c3.123-0.361,6.299-0.07,9.185,0.84c7.71,2.435,14.048,9.318,16.147,17.536c0.182,0.678,0.33,1.372,0.448,2.109   c0.762,4.63,0.145,9.21-1.736,12.894c-0.214,0.416-0.437,0.82-0.681,1.212C38.979,40.369,32.053,43.961,24.897,43.961z    M21.71,2.001c-0.797,0-1.597,0.046-2.393,0.138c-2.763,0.314-5.485,1.192-7.874,2.538C9.068,6.008,7.096,7.736,5.581,9.815   c-4.08,5.576-4.706,12.123-1.763,18.438c3.552,7.62,11.505,13.111,19.79,13.666c6.916,0.456,13.817-2.841,17.144-8.228   c0,0,0.001-0.001,0.001-0.002c0.215-0.347,0.412-0.704,0.6-1.069c1.688-3.304,2.235-7.446,1.543-11.661   c-0.108-0.672-0.242-1.3-0.409-1.923C40.551,11.46,34.738,5.131,27.672,2.899C25.786,2.304,23.759,2.001,21.71,2.001z" fill="#000000"/>
	<path d="M23.732,51.196c-0.536,0-0.979-0.425-0.998-0.965l-0.23-6.88c-0.02-0.552,0.412-1.015,0.964-1.035   c0.55-0.032,1.015,0.413,1.034,0.964l0.23,6.88c0.02,0.552-0.412,1.015-0.964,1.035C23.756,51.196,23.744,51.196,23.732,51.196z" fill="#000000"/>
	<path d="M38.763,51.316c-0.371,0-0.728-0.207-0.9-0.563c-0.593-1.222-1.446-2.966-2.295-4.698   c-0.812-1.657-1.617-3.303-2.185-4.472c-0.241-0.497-0.034-1.095,0.463-1.336c0.498-0.241,1.095-0.034,1.336,0.463   c0.566,1.167,1.372,2.811,2.182,4.466c0.85,1.734,1.705,3.481,2.298,4.704c0.241,0.497,0.034,1.095-0.463,1.336   C39.058,51.283,38.91,51.316,38.763,51.316z" fill="#000000"/>
	<path d="M49.702,40.996c-0.227,0-0.455-0.077-0.642-0.234c-0.906-0.761-2.353-1.799-3.751-2.804   c-1.429-1.026-2.905-2.087-3.869-2.896c-0.424-0.355-0.479-0.986-0.123-1.409c0.354-0.421,0.986-0.479,1.408-0.123   c0.906,0.761,2.353,1.799,3.751,2.804c1.429,1.026,2.905,2.087,3.869,2.896c0.424,0.355,0.479,0.986,0.123,1.409   C50.271,40.874,49.988,40.996,49.702,40.996z" fill="#000000"/>
	<path d="M16.082,28.231c-2.501,0-4.535-2.035-4.535-4.535s2.034-4.535,4.535-4.535c2.495,0,4.525,2.034,4.525,4.535   S18.578,28.231,16.082,28.231z M16.082,19.411c-2.363,0-4.285,1.922-4.285,4.285s1.922,4.285,4.285,4.285   c2.357,0,4.275-1.922,4.275-4.285S18.44,19.411,16.082,19.411z" fill="#000000"/>
	<path d="M15.983,26.151c-1.232,0-2.235-1.002-2.235-2.235s1.003-2.235,2.235-2.235s2.234,1.002,2.234,2.235   S17.215,26.151,15.983,26.151z M15.983,21.931c-1.095,0-1.985,0.891-1.985,1.985s0.891,1.985,1.985,1.985   c1.094,0,1.984-0.891,1.984-1.985S17.077,21.931,15.983,21.931z" fill="#000000"/>
</g>
</g></g></g><!--ITEM 8--><g><defs><clipPath id="clip-path-id-viewbox-item-8"><rect x="0.0" y="0.0" width="48.21" height="36.82"/></clipPath></defs><g transform="translate(435.0 412.0) rotate(72.64005321383029 37.5 28.5) scale(1.5556938394523958 1.548071700162955)"><g clip-path="url(#clip-path-id-viewbox-item-8)" transform="translate(-0.0 -0.0)"><g>
	<path style="fill:#82CABE;" d="M47.66,25.09c0.31,3.3-0.83,6.82-3.37,8.96c-2.75,2.32-6.74,2.74-10.22,1.81   c-3.47-0.93-6.52-3.03-9.29-5.33C14.94,22.39,7.05,11.39,0.5,0.5C4.05,1.18,9.47,3,13.17,3.8c3.72,0.82,25.19,6.47,30.37,12.4   C45.73,18.7,47.35,21.79,47.66,25.09z M43.59,26.47c1.52-1.47,1.26-4.04,0.24-5.89c-1.53-2.77-10.68-8.41-10.86-1.78   c-0.04,1.58,0.88,3,1.8,4.28c1.05,1.46,2.2,2.92,3.79,3.76S42.3,27.72,43.59,26.47z"/>
	<path style="fill:#CDE8E3;" d="M43.83,20.58c1.02,1.85,1.28,4.42-0.24,5.89c-1.29,1.25-3.44,1.21-5.03,0.37s-2.74-2.3-3.79-3.76   c-0.92-1.28-1.84-2.7-1.8-4.28C33.15,12.17,42.3,17.81,43.83,20.58z"/>
	<path d="M37.568,36.83c-1.184,0-2.405-0.16-3.627-0.486c-3.852-1.032-7.089-3.443-9.48-5.428   C15.974,23.894,8.223,14.311,0.072,0.758C-0.03,0.589-0.023,0.376,0.09,0.214c0.113-0.162,0.308-0.242,0.504-0.205   c1.917,0.367,4.389,1.068,6.781,1.745c2.061,0.584,4.192,1.188,5.901,1.557c0.246,0.054,24.829,5.906,30.641,12.56   c1.727,1.971,3.865,5.163,4.242,9.172c0.344,3.659-1.015,7.257-3.546,9.389C42.748,36.005,40.256,36.83,37.568,36.83z M1.525,1.228   c7.874,12.934,15.383,22.141,23.574,28.917c0,0,0,0,0,0c2.313,1.92,5.437,4.25,9.1,5.232c3.627,0.969,7.37,0.314,9.768-1.709   c2.284-1.925,3.508-5.193,3.194-8.531c-0.352-3.743-2.368-6.747-3.998-8.608C38.154,10.794,17.016,5.16,13.063,4.288   c-1.738-0.376-3.885-0.984-5.96-1.572C5.179,2.171,3.203,1.612,1.525,1.228z" fill="#000000"/>
</g>
</g></g></g><!--ITEM 9--><g><defs><clipPath id="clip-path-id-viewbox-item-9"><rect x="0.0" y="0.0" width="48.21" height="36.82"/></clipPath></defs><g transform="translate(377.0 403.0) rotate(72.64005321383029 27.5 20.5) scale(1.1408421489317568 1.1135252580119501)"><g clip-path="url(#clip-path-id-viewbox-item-9)" transform="translate(-0.0 -0.0)"><g>
	<path style="fill:#82CABE;" d="M47.66,25.09c0.31,3.3-0.83,6.82-3.37,8.96c-2.75,2.32-6.74,2.74-10.22,1.81   c-3.47-0.93-6.52-3.03-9.29-5.33C14.94,22.39,7.05,11.39,0.5,0.5C4.05,1.18,9.47,3,13.17,3.8c3.72,0.82,25.19,6.47,30.37,12.4   C45.73,18.7,47.35,21.79,47.66,25.09z M43.59,26.47c1.52-1.47,1.26-4.04,0.24-5.89c-1.53-2.77-10.68-8.41-10.86-1.78   c-0.04,1.58,0.88,3,1.8,4.28c1.05,1.46,2.2,2.92,3.79,3.76S42.3,27.72,43.59,26.47z"/>
	<path style="fill:#CDE8E3;" d="M43.83,20.58c1.02,1.85,1.28,4.42-0.24,5.89c-1.29,1.25-3.44,1.21-5.03,0.37s-2.74-2.3-3.79-3.76   c-0.92-1.28-1.84-2.7-1.8-4.28C33.15,12.17,42.3,17.81,43.83,20.58z"/>
	<path d="M37.568,36.83c-1.184,0-2.405-0.16-3.627-0.486c-3.852-1.032-7.089-3.443-9.48-5.428   C15.974,23.894,8.223,14.311,0.072,0.758C-0.03,0.589-0.023,0.376,0.09,0.214c0.113-0.162,0.308-0.242,0.504-0.205   c1.917,0.367,4.389,1.068,6.781,1.745c2.061,0.584,4.192,1.188,5.901,1.557c0.246,0.054,24.829,5.906,30.641,12.56   c1.727,1.971,3.865,5.163,4.242,9.172c0.344,3.659-1.015,7.257-3.546,9.389C42.748,36.005,40.256,36.83,37.568,36.83z M1.525,1.228   c7.874,12.934,15.383,22.141,23.574,28.917c0,0,0,0,0,0c2.313,1.92,5.437,4.25,9.1,5.232c3.627,0.969,7.37,0.314,9.768-1.709   c2.284-1.925,3.508-5.193,3.194-8.531c-0.352-3.743-2.368-6.747-3.998-8.608C38.154,10.794,17.016,5.16,13.063,4.288   c-1.738-0.376-3.885-0.984-5.96-1.572C5.179,2.171,3.203,1.612,1.525,1.228z" fill="#000000"/>
</g>
</g></g></g><!--ITEM 10--><g><defs><clipPath id="clip-path-id-viewbox-item-10"><rect x="0.0" y="0.0" width="48.21" height="36.82"/></clipPath></defs><g transform="translate(365.0 481.0) rotate(72.64005321383029 45.0 33.5) scale(1.866832607342875 1.819663226507333)"><g clip-path="url(#clip-path-id-viewbox-item-10)" transform="translate(-0.0 -0.0)"><g>
	<path style="fill:#82CABE;" d="M47.66,25.09c0.31,3.3-0.83,6.82-3.37,8.96c-2.75,2.32-6.74,2.74-10.22,1.81   c-3.47-0.93-6.52-3.03-9.29-5.33C14.94,22.39,7.05,11.39,0.5,0.5C4.05,1.18,9.47,3,13.17,3.8c3.72,0.82,25.19,6.47,30.37,12.4   C45.73,18.7,47.35,21.79,47.66,25.09z M43.59,26.47c1.52-1.47,1.26-4.04,0.24-5.89c-1.53-2.77-10.68-8.41-10.86-1.78   c-0.04,1.58,0.88,3,1.8,4.28c1.05,1.46,2.2,2.92,3.79,3.76S42.3,27.72,43.59,26.47z"/>
	<path style="fill:#CDE8E3;" d="M43.83,20.58c1.02,1.85,1.28,4.42-0.24,5.89c-1.29,1.25-3.44,1.21-5.03,0.37s-2.74-2.3-3.79-3.76   c-0.92-1.28-1.84-2.7-1.8-4.28C33.15,12.17,42.3,17.81,43.83,20.58z"/>
	<path d="M37.568,36.83c-1.184,0-2.405-0.16-3.627-0.486c-3.852-1.032-7.089-3.443-9.48-5.428   C15.974,23.894,8.223,14.311,0.072,0.758C-0.03,0.589-0.023,0.376,0.09,0.214c0.113-0.162,0.308-0.242,0.504-0.205   c1.917,0.367,4.389,1.068,6.781,1.745c2.061,0.584,4.192,1.188,5.901,1.557c0.246,0.054,24.829,5.906,30.641,12.56   c1.727,1.971,3.865,5.163,4.242,9.172c0.344,3.659-1.015,7.257-3.546,9.389C42.748,36.005,40.256,36.83,37.568,36.83z M1.525,1.228   c7.874,12.934,15.383,22.141,23.574,28.917c0,0,0,0,0,0c2.313,1.92,5.437,4.25,9.1,5.232c3.627,0.969,7.37,0.314,9.768-1.709   c2.284-1.925,3.508-5.193,3.194-8.531c-0.352-3.743-2.368-6.747-3.998-8.608C38.154,10.794,17.016,5.16,13.063,4.288   c-1.738-0.376-3.885-0.984-5.96-1.572C5.179,2.171,3.203,1.612,1.525,1.228z" fill="#000000"/>
</g>
</g></g></g><!--ITEM 11--><g><defs><clipPath id="clip-path-id-viewbox-item-11"><rect x="0.0" y="0.0" width="258.05" height="205.812"/></clipPath></defs><g transform="translate(310.0 845.0) rotate(-89.99999999999974 106.0 84.5) scale(0.8215462119744236 0.8211377373525353)"><g clip-path="url(#clip-path-id-viewbox-item-11)" transform="translate(-0.0 -0.0)"><g>
	<path d="M141.381,195.56c-0.222,0-0.448-0.033-0.671-0.103c-39.357-12.295-74.435-39.412-96.239-74.397   C22.663,86.096,13.761,42.666,20.046,1.907c0.189-1.228,1.338-2.067,2.567-1.881c1.228,0.189,2.07,1.338,1.881,2.566   c-6.124,39.71,2.55,82.022,23.795,116.086c21.243,34.085,55.418,60.504,93.762,72.483c1.186,0.37,1.847,1.632,1.477,2.818   C143.227,194.944,142.339,195.56,141.381,195.56z" fill="#000000"/>
	<path d="M205.773,205.849c-8.1,0-16.729-0.942-26.164-2.781c-1.22-0.238-2.016-1.419-1.778-2.639s1.422-2.014,2.639-1.778   c30.034,5.852,51.503,2.276,74.108-12.341c1.042-0.675,2.436-0.376,3.111,0.667c0.675,1.043,0.376,2.437-0.667,3.111   C240.475,200.789,224.543,205.849,205.773,205.849z" fill="#000000"/>
	<path d="M5.849,85.601c-0.575,0-1.109-0.371-1.289-0.949C1.595,75.122,0.061,65.257,0,55.328c-0.005-0.746,0.596-1.354,1.342-1.358   c0.73-0.001,1.354,0.596,1.358,1.342c0.059,9.662,1.553,19.263,4.439,28.537c0.221,0.712-0.176,1.469-0.888,1.69   C6.117,85.581,5.982,85.601,5.849,85.601z" fill="#000000"/>
	<path d="M98.759,200.81c-0.22,0-0.442-0.054-0.648-0.167c-38.43-21.102-69.04-54.948-86.193-95.306   c-0.292-0.686,0.028-1.479,0.714-1.771c0.687-0.288,1.479,0.028,1.771,0.715c16.917,39.802,47.106,73.183,85.007,93.995   c0.654,0.358,0.893,1.179,0.534,1.833C99.698,200.557,99.236,200.81,98.759,200.81z" fill="#000000"/>
</g>
</g></g></g><!--ITEM 12--><g><defs><clipPath id="clip-path-id-viewbox-item-12"><rect x="0.0" y="0.0" width="556.669" height="380.477"/></clipPath></defs><g transform="translate(244.0 141.0) rotate(0.0 186.5 127.5) scale(0.6700570716170651 0.6702113399758725)"><g clip-path="url(#clip-path-id-viewbox-item-12)" transform="translate(-0.0 -0.0)"><g>
	<path style="fill:#38798f;" d="M533.425,250.699c-20.71-19.03-53.01-24.42-79.58-15.21c11.54-15.79,21.82-33.4,23.76-52.86   c1.93-19.4-6.37-40.9-23.84-49.51c-30.79-14.79-70.46-16.65-90.28-0.86c-2.1,1.66-3.97,3.53-5.59,5.6c0,0.02,0,0.03,0,0.05h-0.04   c-17.33,22.15-35.58,45.56-48.56,70.5c-10.13,19.46-17.47,40.8-19.23,62.56c-0.51,6.13-0.57,12.29-0.12,18.46   c0.21,2.96,0.56,5.91,1.04,8.85c1.09,6.92,2.89,13.76,5.38,20.31c0.63,1.68,1.31,3.34,2.04,4.97   c17.16,21.42,43.07,30.33,69.07,31.43c26.02,1.1,52.33-8,72.11-24.94c12.33,17.14,32.97,28.4,54.08,28.57   c21.1,0.17,47.19-12.34,57.09-30.78C562.065,302.079,554.135,269.729,533.425,250.699z"/>
	<path style="fill:#225b72;" d="M298.405,323.559c17.16,21.42,43.07,30.33,69.07,31.43c26.02,1.1,52.33-8,72.11-24.94   c12.33,17.14,32.97,28.4,54.08,28.57c21.1,0.17,47.19-12.34,57.09-30.78c-8.76,19.95-27.59,34.36-48.28,41.23   c-23.78,7.9-52.78,5.6-68.22-14.13c-19.48,13-43.77,20.01-66.87,18.34c-13.58-0.97-26.74-4.95-38.28-12.47   C315.365,351.859,305.025,338.609,298.405,323.559z"/>
	<path style="fill:#38798f;" d="M359.885,111.129l0.16,0.19c-0.03,0.02-0.05,0.05-0.08,0.08   C359.935,111.309,359.915,111.219,359.885,111.129z"/>
	<path style="fill:#38798f;" d="M357.895,137.859c0,0.02,0,0.03,0,0.05h-0.04C357.865,137.889,357.885,137.879,357.895,137.859z"/>
	<path style="fill:#38798f;" d="M359.965,111.399c-0.03-0.09-0.05-0.18-0.08-0.27c-10.52-39.54-38.59-73.78-74.69-92.96l-0.64-0.34   c-0.14,0.09-0.28,0.19-0.42,0.29l-0.53-0.78c-4.01-2.07-8.13-3.95-12.32-5.64c-42.72-17.15-93.36-14.1-133.31,8.78   c-44.61,25.55-70.81,86.98-57.03,146.91c0.86,3.75,1.93,7.42,3.2,11.01l0.07,0.53c-0.45,0.06-0.9,0.12-1.35,0.18l1.77,0.64   c13.27,35.94,46.13,63.91,80.84,80.94c2.89,1.42,5.83,2.76,8.79,4.02l1.07,0.21c-0.01,0.07-0.03,0.14-0.04,0.21l1.23,0.51   c9.26,3.76,18.81,6.7,28.53,8.8c10.28,2.22,20.75,3.5,31.25,3.8c10.04,0.29,20.11-0.31,30.07-1.84c7.99-1.21,15.9-3.02,23.68-5.43   h0.01c1.76-21.76,9.1-43.1,19.23-62.56c12.98-24.94,31.23-48.35,48.56-70.5c0.01-0.02,0.03-0.03,0.04-0.05   c1.62-2.07,3.49-3.94,5.59-5.6C362.795,125.489,361.766,117.659,359.965,111.399z"/>
	<path style="fill:#38798f;" d="M284.835,17.639l0.36,0.53l-0.64-0.34C284.645,17.759,284.735,17.699,284.835,17.639z"/>
	<path style="fill:#225b72;" d="M189.515,373.309c-0.61,0.16-2.58,0.58-3.53,0.8l3.78-0.96L189.515,373.309z"/>
	<path style="fill:#38798f;" d="M176.525,265.639l-1.28-0.24c0.02-0.09,0.03-0.18,0.05-0.27L176.525,265.639z"/>
	<path style="fill:#38798f;" d="M174.265,264.709l1.07,0.21c-0.01,0.07-0.03,0.14-0.04,0.21L174.265,264.709z"/>
	<path style="fill:#38798f;" d="M290.985,298.279c-0.48-2.94-0.83-5.89-1.04-8.85c-0.45-6.17-0.39-12.33,0.12-18.46h-0.01   c-7.78,2.41-15.69,4.22-23.68,5.43c-9.96,1.53-20.03,2.13-30.07,1.84c-10.5-0.3-20.97-1.58-31.25-3.8   c-9.72-2.1-19.27-5.04-28.53-8.8l-1.28-0.24c0.02-0.09,0.03-0.18,0.05-0.27l-1.03-0.42c-2.96-1.26-5.9-2.6-8.79-4.02   c-34.71-17.03-67.57-45-80.84-80.94l-1.77-0.64c-30.7,4.52-57.46,23.61-72.29,49.76c-8.41,14.83-12.7,37.76-7.68,61.25h0.01   c18.82,55.4,111.83,89.61,175.5,58.74c2.97,8.45,6.92,16.56,11.85,23.97l-0.49,0.32l2.16-0.55c8.13-2.14,16.2-4.56,24.14-7.31   c9.77-3.38,19.36-7.26,28.62-11.71c10.09-4.84,19.8-10.36,28.98-16.69c7.93-5.45,15.46-11.5,22.48-18.21l0.22-0.09   C293.875,312.039,292.075,305.199,290.985,298.279z"/>
	<path style="fill:#225b72;" d="M189.765,373.149l-3.78,0.96c-0.13,0.03-0.24,0.06-0.33,0.08c-37.2,9.14-100.86,11.76-150.78-30.96   c-18.2-15.58-28.01-34.52-31.98-53.11h0.01c18.82,55.4,111.83,89.61,175.5,58.74c2.97,8.45,6.92,16.56,11.85,23.97L189.765,373.149   z"/>
	<path style="fill:#225b72;" d="M178.405,348.859c26.355-12.139,74.755-34.995,111.66-77.89c-2.493,19.15,2.472,38.668,6.3,47.62   c-11.441,11.947-41.088,37.274-106.6,54.56C181.285,361.678,178.405,348.859,178.405,348.859z"/>
	<path d="M84.145,179.149c-0.309,0-0.599-0.192-0.707-0.5c-1.283-3.629-2.368-7.36-3.225-11.092   c-6.6-28.707-4.237-59.531,6.654-86.794c10.648-26.655,28.666-48.296,50.734-60.935c39.642-22.703,90.973-26.082,133.962-8.826   c4.257,1.718,8.424,3.625,12.385,5.671l1.598,0.834c36.612,19.451,64.673,54.378,75.063,93.43l0.038,0.127   c0.004,0.011,0.035,0.117,0.038,0.128c1.953,6.793,2.959,15.233,3.545,20.991c0.042,0.412-0.258,0.78-0.67,0.822   c-0.422,0.043-0.78-0.258-0.822-0.67c-0.58-5.701-1.574-14.052-3.494-20.729l-0.042-0.142c-0.005-0.016-0.038-0.126-0.042-0.143   c-10.285-38.655-38.067-73.23-74.317-92.49l-1.582-0.825c-3.92-2.024-8.044-3.912-12.257-5.612   c-42.573-17.09-93.405-13.744-132.656,8.735c-46.216,26.47-70.05,87.91-56.673,146.092c0.844,3.677,1.912,7.353,3.177,10.928   c0.138,0.391-0.066,0.819-0.457,0.957C84.312,179.135,84.228,179.149,84.145,179.149z" fill="#000000"/>
	<path d="M241.172,278.434c-1.623,0-3.246-0.023-4.87-0.07c-10.446-0.299-20.968-1.578-31.272-3.803   c-9.73-2.102-19.336-5.064-28.551-8.806l-2.26-0.93c-3.033-1.292-5.992-2.646-8.798-4.024c-18.27-8.964-35.038-20.514-48.492-33.4   c-15.228-14.587-26.132-30.604-32.41-47.608c-0.024-0.064,0.009-0.137,0.074-0.16c0.062-0.024,0.137,0.01,0.16,0.074   c11.816,32.005,41.259,61.48,80.777,80.87c2.802,1.377,5.758,2.729,8.784,4.018l2.259,0.93c9.2,3.735,18.793,6.694,28.509,8.793   c10.289,2.222,20.796,3.499,31.228,3.797c10.094,0.288,20.208-0.327,30.048-1.839c7.98-1.208,15.941-3.033,23.661-5.425   c0.071-0.021,0.137,0.017,0.156,0.082c0.021,0.066-0.017,0.136-0.082,0.156c-7.731,2.396-15.705,4.224-23.698,5.435   C258.123,277.793,249.659,278.434,241.172,278.434z" fill="#000000"/>
	<path d="M374.148,374.271c-2.287,0-4.56-0.081-6.816-0.244c-14.396-1.028-27.395-5.264-38.636-12.59   c-13.248-8.629-23.96-21.623-30.978-37.576c-0.727-1.622-1.419-3.309-2.056-5.008c-2.488-6.549-4.313-13.433-5.419-20.458   c-0.486-2.985-0.839-5.985-1.047-8.913c-0.441-6.051-0.401-12.301,0.121-18.575c1.635-20.224,8.133-41.368,19.313-62.845   c13.142-25.251,31.998-49.352,48.634-70.615h0.001c0.01-0.014,0.021-0.027,0.032-0.041c0.002-0.003,0.005-0.006,0.007-0.009   c1.646-2.103,3.568-4.028,5.716-5.726c19.182-15.285,58.336-14.952,91.07,0.771c0.373,0.179,0.53,0.627,0.351,1.001   c-0.179,0.373-0.623,0.531-1.001,0.351c-32.25-15.49-70.723-15.9-89.487-0.948c-2.057,1.625-3.895,3.467-5.467,5.475h-0.001   c-0.012,0.016-0.023,0.031-0.036,0.046c-0.001,0.001-0.002,0.003-0.003,0.004c-16.597,21.213-35.407,45.256-48.485,70.385   c-11.086,21.297-17.528,42.249-19.148,62.274c-0.515,6.198-0.555,12.369-0.119,18.345c0.204,2.884,0.552,5.838,1.032,8.783   c1.091,6.928,2.888,13.711,5.341,20.165c0.628,1.674,1.308,3.331,2.023,4.93c6.901,15.69,17.422,28.458,30.425,36.928   c11.025,7.186,23.785,11.341,37.925,12.351c22.42,1.622,46.623-5.018,66.4-18.216c0.345-0.229,0.81-0.137,1.04,0.208   c0.229,0.345,0.137,0.81-0.208,1.04C416.614,367.613,394.904,374.271,374.148,374.271z" fill="#000000"/>
	<path d="M476.912,373.982c-16.465,0-32.849-5.292-43.247-18.581c-0.255-0.326-0.197-0.797,0.129-1.053   c0.326-0.258,0.797-0.197,1.053,0.129c15.56,19.886,45.058,21.302,67.393,13.88c22.249-7.388,39.683-22.266,47.83-40.819   c10.972-24.989,3.759-57.073-17.151-76.286c-20.03-18.404-51.711-24.454-78.826-15.054c-0.396,0.137-0.819-0.072-0.955-0.463   c-0.136-0.392,0.072-0.819,0.463-0.955c27.629-9.574,59.909-3.401,80.334,15.366c21.366,19.635,28.73,52.436,17.509,77.995   c-8.317,18.941-26.079,34.118-48.73,41.64C494.709,372.44,485.798,373.982,476.912,373.982z" fill="#000000"/>
	<path d="M453.845,236.239c-0.153,0-0.308-0.047-0.441-0.145c-0.335-0.244-0.407-0.714-0.163-1.048   c9.913-13.563,21.556-31.787,23.619-52.491c2.077-20.89-7.555-40.941-23.426-48.764c-0.016-0.008-0.053-0.03-0.077-0.045   c-0.026-0.012-0.054-0.025-0.077-0.038c-0.347-0.16-0.521-0.563-0.391-0.931c0.139-0.39,0.567-0.592,0.958-0.456   c0.038,0.014,0.103,0.044,0.147,0.069c0.085,0.037,0.141,0.073,0.178,0.098c16.345,8.05,26.318,28.717,24.18,50.215   c-2.1,21.064-13.875,39.511-23.9,53.228C454.305,236.132,454.076,236.239,453.845,236.239z" fill="#000000"/>
	<path d="M185.985,374.359c-0.112,0-0.214-0.075-0.242-0.188c-0.034-0.134,0.047-0.27,0.181-0.304l5.94-1.51   c8.381-2.206,16.496-4.663,24.119-7.304c10.066-3.483,19.688-7.419,28.594-11.699c10.402-4.99,20.142-10.6,28.947-16.671   c8.088-5.559,15.641-11.677,22.448-18.185c0.101-0.093,0.259-0.093,0.354,0.008c0.096,0.1,0.092,0.258-0.008,0.354   c-6.827,6.526-14.4,12.661-22.511,18.235c-8.826,6.086-18.588,11.708-29.014,16.71c-8.924,4.288-18.563,8.231-28.646,11.721   c-7.635,2.645-15.763,5.105-24.158,7.315l-5.942,1.51C186.026,374.356,186.006,374.359,185.985,374.359z" fill="#000000"/>
	<path d="M139.251,380.379c-30.939,0.001-70.615-7.272-104.862-36.58c-16.649-14.253-27.793-32.761-32.227-53.524   c-4.604-21.544-1.63-45.215,7.761-61.776c15.27-26.924,42.496-45.664,72.833-50.132l1.361-0.181c0.4-0.109,0.823,0.129,0.931,0.529   c0.107,0.399-0.117,0.811-0.518,0.918c-0.032,0.009-0.129,0.026-0.162,0.03l-1.404,0.188   c-29.872,4.399-56.693,22.861-71.736,49.387c-9.218,16.255-12.129,39.523-7.599,60.724c4.364,20.438,15.338,38.66,31.734,52.697   c57.021,48.794,129.313,35.914,150.113,30.801l0.339-0.082c0.366-0.085,0.88-0.198,1.411-0.315   c0.843-0.187,1.727-0.382,2.099-0.479c0.396-0.101,0.811,0.135,0.916,0.535s-0.135,0.811-0.535,0.916   c-0.382,0.101-1.29,0.302-2.156,0.492c-0.525,0.116-1.034,0.229-1.396,0.313l-0.34,0.082   C177.327,377.007,160.312,380.378,139.251,380.379z" fill="#000000"/>
	<path d="M359.245,166.264c-0.035,0-0.069-0.015-0.094-0.043c-0.046-0.052-0.041-0.131,0.012-0.176   c0.037-0.033,0.071-0.067,0.106-0.103c0.04-0.04,0.081-0.08,0.124-0.118c0.051-0.046,0.13-0.04,0.177,0.013   c0.045,0.053,0.039,0.131-0.013,0.177c-0.039,0.033-0.075,0.069-0.111,0.106c-0.039,0.038-0.078,0.076-0.119,0.112   C359.304,166.254,359.274,166.264,359.245,166.264z" fill="#000000"/>
</g>
</g></g></g><!--ITEM 13--><g><defs><clipPath id="clip-path-id-viewbox-item-13"><rect x="0.0" y="0.0" width="50.703" height="51.316"/></clipPath></defs><g transform="translate(384.0 233.0) rotate(-43.83725541204966 29.0 29.5) scale(1.1439165335384494 1.1497388728661626)"><g clip-path="url(#clip-path-id-viewbox-item-13)" transform="translate(-0.0 -0.0)"><g>
	<path style="fill:#FEE3E8;" d="M43.883,20.796c0.68,4.14,0.27,8.54-1.64,12.28c-0.2,0.39-0.41,0.77-0.64,1.14   c-3.66,5.93-11.06,9.17-18.06,8.7c-15.85-1.06-29.38-19.19-18.77-33.69c1.64-2.25,3.77-4.07,6.18-5.42   c2.52-1.42,5.35-2.33,8.25-2.66c2.94-0.34,5.95-0.09,8.77,0.8c7.6,2.4,13.51,9.12,15.48,16.83   C43.633,19.446,43.773,20.116,43.883,20.796z M25.153,23.416c0-4.24-3.44-7.68-7.69-7.68c-4.24,0-7.68,3.44-7.68,7.68   c0,4.25,3.44,7.69,7.68,7.69C21.713,31.106,25.153,27.666,25.153,23.416z"/>
	<path style="fill:#88AEBA;" d="M17.463,15.736c4.25,0,7.69,3.44,7.69,7.68c0,4.25-3.44,7.69-7.69,7.69c-4.24,0-7.68-3.44-7.68-7.69   C9.783,19.176,13.223,15.736,17.463,15.736z M20.483,23.696c0-2.44-1.97-4.41-4.4-4.41c-2.44,0-4.41,1.97-4.41,4.41   c0,2.43,1.97,4.41,4.41,4.41C18.513,28.106,20.483,26.126,20.483,23.696z"/>
	<path style="fill:#020201;" d="M16.083,19.286c2.43,0,4.4,1.97,4.4,4.41c0,2.43-1.97,4.41-4.4,4.41c-2.44,0-4.41-1.98-4.41-4.41   C11.673,21.256,13.643,19.286,16.083,19.286z M18.093,23.916c0-1.16-0.95-2.11-2.11-2.11c-1.17,0-2.11,0.95-2.11,2.11   c0,1.17,0.94,2.11,2.11,2.11C17.143,26.026,18.093,25.086,18.093,23.916z"/>
	<circle style="fill:#205B9B;" cx="15.983" cy="23.916" r="2.11"/>
	<path d="M24.897,43.961c-0.474,0-0.946-0.016-1.422-0.048c-8.991-0.601-17.619-6.555-21.469-14.815   c-3.266-7.006-2.569-14.273,1.96-20.462c1.685-2.313,3.871-4.231,6.498-5.702c2.618-1.475,5.602-2.437,8.625-2.781   c3.123-0.361,6.299-0.07,9.185,0.84c7.71,2.435,14.048,9.318,16.147,17.536c0.182,0.678,0.33,1.372,0.448,2.109   c0.762,4.63,0.145,9.21-1.736,12.894c-0.214,0.416-0.437,0.82-0.681,1.212C38.979,40.369,32.053,43.961,24.897,43.961z    M21.71,2.001c-0.797,0-1.597,0.046-2.393,0.138c-2.763,0.314-5.485,1.192-7.874,2.538C9.068,6.008,7.096,7.736,5.581,9.815   c-4.08,5.576-4.706,12.123-1.763,18.438c3.552,7.62,11.505,13.111,19.79,13.666c6.916,0.456,13.817-2.841,17.144-8.228   c0,0,0.001-0.001,0.001-0.002c0.215-0.347,0.412-0.704,0.6-1.069c1.688-3.304,2.235-7.446,1.543-11.661   c-0.108-0.672-0.242-1.3-0.409-1.923C40.551,11.46,34.738,5.131,27.672,2.899C25.786,2.304,23.759,2.001,21.71,2.001z" fill="#000000"/>
	<path d="M23.732,51.196c-0.536,0-0.979-0.425-0.998-0.965l-0.23-6.88c-0.02-0.552,0.412-1.015,0.964-1.035   c0.55-0.032,1.015,0.413,1.034,0.964l0.23,6.88c0.02,0.552-0.412,1.015-0.964,1.035C23.756,51.196,23.744,51.196,23.732,51.196z" fill="#000000"/>
	<path d="M38.763,51.316c-0.371,0-0.728-0.207-0.9-0.563c-0.593-1.222-1.446-2.966-2.295-4.698   c-0.812-1.657-1.617-3.303-2.185-4.472c-0.241-0.497-0.034-1.095,0.463-1.336c0.498-0.241,1.095-0.034,1.336,0.463   c0.566,1.167,1.372,2.811,2.182,4.466c0.85,1.734,1.705,3.481,2.298,4.704c0.241,0.497,0.034,1.095-0.463,1.336   C39.058,51.283,38.91,51.316,38.763,51.316z" fill="#000000"/>
	<path d="M49.702,40.996c-0.227,0-0.455-0.077-0.642-0.234c-0.906-0.761-2.353-1.799-3.751-2.804   c-1.429-1.026-2.905-2.087-3.869-2.896c-0.424-0.355-0.479-0.986-0.123-1.409c0.354-0.421,0.986-0.479,1.408-0.123   c0.906,0.761,2.353,1.799,3.751,2.804c1.429,1.026,2.905,2.087,3.869,2.896c0.424,0.355,0.479,0.986,0.123,1.409   C50.271,40.874,49.988,40.996,49.702,40.996z" fill="#000000"/>
	<path d="M16.082,28.231c-2.501,0-4.535-2.035-4.535-4.535s2.034-4.535,4.535-4.535c2.495,0,4.525,2.034,4.525,4.535   S18.578,28.231,16.082,28.231z M16.082,19.411c-2.363,0-4.285,1.922-4.285,4.285s1.922,4.285,4.285,4.285   c2.357,0,4.275-1.922,4.275-4.285S18.44,19.411,16.082,19.411z" fill="#000000"/>
	<path d="M15.983,26.151c-1.232,0-2.235-1.002-2.235-2.235s1.003-2.235,2.235-2.235s2.234,1.002,2.234,2.235   S17.215,26.151,15.983,26.151z M15.983,21.931c-1.095,0-1.985,0.891-1.985,1.985s0.891,1.985,1.985,1.985   c1.094,0,1.984-0.891,1.984-1.985S17.077,21.931,15.983,21.931z" fill="#000000"/>
</g>
</g></g></g><!--ITEM 14--><g><defs><clipPath id="clip-path-id-viewbox-item-14"><rect x="0.0" y="0.0" width="109.67" height="145.28"/></clipPath></defs><g transform="translate(377.0 192.0) rotate(0.0 -32.0 42.0) scale(-0.5835688884836328 0.5781938325991189)"><g clip-path="url(#clip-path-id-viewbox-item-14)" transform="translate(-0.0 -0.0)"><g>
	<path d="M64.712,130.731c-3.313,0-6.756-0.884-10.071-2.599c-1.569-0.805-3.092-1.787-4.521-2.915   c-2.718-2.147-6.697-5.444-9.867-9.282c-0.841-1.013-1.644-2.097-2.385-3.219c-2.459-3.772-4.8-7.744-6.963-11.813   C20.713,81.707,14.358,59.892,12.017,36.067c-0.005-0.049-0.007-0.098-0.007-0.147c0-0.828,0.671-1.52,1.5-1.52   c0.815,0,1.479,0.631,1.5,1.441c2.308,23.408,8.547,44.824,18.545,63.656c2.121,3.99,4.417,7.884,6.822,11.574   c0.676,1.023,1.414,2.019,2.188,2.951c2.99,3.62,6.805,6.779,9.416,8.841c1.276,1.008,2.634,1.884,4.035,2.603   c3.465,1.792,7.048,2.543,10.369,2.174c5.592-0.618,11.037-4.516,14.568-10.428c3.103-5.181,4.591-11.094,5.87-18.38   c0.883-5.012,1.587-10.099,2.095-15.121c2.573-24.97,0.72-50.959-5.829-81.789c-0.003-0.012-0.006-0.024-0.009-0.036   c-0.203-0.764,0.225-1.563,0.986-1.811c0.787-0.255,1.634,0.175,1.89,0.963c0.013,0.04,0.029,0.101,0.042,0.153   c0.007,0.026,0.013,0.053,0.019,0.079c6.621,31.157,8.491,57.45,5.885,82.746c-0.515,5.092-1.229,10.253-2.125,15.336   c-1.157,6.587-2.715,13.498-6.25,19.4c-4.008,6.712-10.294,11.15-16.812,11.87C66.055,130.695,65.386,130.731,64.712,130.731z" fill="#000000"/>
	<path d="M1.499,53.061c-0.636,0-1.226-0.407-1.429-1.046c-0.251-0.79,0.185-1.633,0.975-1.884c1.876-0.597,4.319-1.472,6.682-2.318   c2.297-0.823,4.673-1.674,6.535-2.271c0.785-0.253,1.633,0.181,1.886,0.97c0.253,0.789-0.181,1.634-0.97,1.886   c-1.813,0.582-4.165,1.424-6.439,2.239c-2.387,0.855-4.856,1.739-6.784,2.353C1.804,53.038,1.65,53.061,1.499,53.061z" fill="#000000"/>
	<path d="M7.391,79.82c-0.522,0-1.029-0.273-1.306-0.759c-0.409-0.72-0.157-1.636,0.563-2.045c2.114-1.201,5.59-3.34,8.383-5.059   c2.046-1.259,3.662-2.254,4.229-2.563c0.728-0.398,1.638-0.13,2.036,0.596c0.397,0.727,0.131,1.638-0.596,2.036   c-0.499,0.273-2.166,1.299-4.096,2.486c-2.812,1.731-6.313,3.885-8.472,5.112C7.897,79.757,7.642,79.82,7.391,79.82z" fill="#000000"/>
	<path d="M17.521,111.88c-0.479,0-0.95-0.229-1.24-0.654c-0.467-0.684-0.292-1.617,0.393-2.085   c4.987-3.407,14.602-10.105,14.699-10.172c0.68-0.474,1.615-0.306,2.088,0.373c0.473,0.68,0.306,1.615-0.374,2.088   c-0.097,0.067-9.723,6.773-14.721,10.188C18.107,111.795,17.813,111.88,17.521,111.88z" fill="#000000"/>
	<path d="M52.672,145.28c-0.077,0-0.154-0.006-0.232-0.018c-0.819-0.127-1.379-0.894-1.252-1.713   c0.42-2.699,0.844-5.395,1.269-8.093c0.466-2.96,0.932-5.92,1.392-8.887c0.002-0.011,0.003-0.021,0.005-0.032   c0.01-0.081,0.023-0.155,0.04-0.223c0.196-0.805,1.005-1.299,1.813-1.102c0.775,0.189,1.262,0.949,1.121,1.724   c-0.004,0.028-0.009,0.06-0.015,0.093h0.001c-0.461,2.968-0.927,5.931-1.393,8.893c-0.424,2.696-0.848,5.39-1.267,8.087   C54.037,144.751,53.398,145.28,52.672,145.28z" fill="#000000"/>
	<path d="M96.9,129.42c-0.402,0-0.802-0.16-1.098-0.477l-12.58-13.49c-0.565-0.606-0.532-1.555,0.074-2.12   c0.606-0.566,1.555-0.532,2.12,0.074l12.58,13.49c0.565,0.606,0.532,1.555-0.074,2.12C97.634,129.287,97.266,129.42,96.9,129.42z" fill="#000000"/>
	<path d="M91.208,76.67c-0.726,0-1.363-0.527-1.48-1.267c-0.129-0.818,0.43-1.586,1.249-1.715c0.866-0.136,2.568-0.433,4.656-0.797   c3.65-0.636,8.648-1.507,12.311-2.064c0.819-0.124,1.584,0.438,1.709,1.257s-0.438,1.584-1.257,1.709   c-3.631,0.553-8.612,1.421-12.249,2.054c-2.109,0.367-3.829,0.667-4.704,0.805C91.364,76.664,91.286,76.67,91.208,76.67z" fill="#000000"/>
	<path d="M91.09,44.341c-0.624,0-1.206-0.392-1.419-1.015c-0.268-0.784,0.15-1.637,0.934-1.905l17.08-5.85   c0.785-0.269,1.637,0.15,1.905,0.934c0.268,0.784-0.15,1.637-0.934,1.905l-17.08,5.85C91.415,44.314,91.251,44.341,91.09,44.341z" fill="#000000"/>
	<path d="M87.031,14.26c-0.559,0-1.095-0.313-1.353-0.851c-0.359-0.747-0.044-1.643,0.702-2.002l14.68-7.04   c0.747-0.358,1.643-0.044,2.002,0.702c0.359,0.747,0.044,1.643-0.702,2.002l-14.68,7.04C87.471,14.213,87.249,14.26,87.031,14.26z" fill="#000000"/>
</g>
</g></g></g><!--ITEM 15--><g><defs><clipPath id="clip-path-id-viewbox-item-15"><rect x="0.0" y="0.0" width="56.35631" height="23.99931"/></clipPath></defs><g transform="translate(323.0 291.0) rotate(5.342623674291431 49.5 20.0) scale(1.7566799529635635 1.666714584710977)"><g clip-path="url(#clip-path-id-viewbox-item-15)" transform="translate(-0.0 -0.0)"><g>
    <g>
      <path d="M55.65844,6.82382A8.12414,8.12414,0,0,1,53.131,14.6789a31.85394,31.85394,0,0,1-5.2097,3.74332v-6.455A25.56627,25.56627,0,0,0,55.65844,6.82382Z" style="         fill: #fed3d5;       "/>
      <path d="M55.65844,6.81645v.00737a25.56627,25.56627,0,0,1-7.73717,5.14338V.50145a8.12925,8.12925,0,0,1,7.73717,6.315Z" style="         fill: #ffe4e9;       "/>
      <path d="M47.92127,18.41485v.00737A37.56107,37.56107,0,0,1,35.9618,22.77714V15.24629A43.30666,43.30666,0,0,0,47.92127,11.9672Z" style="         fill: #fed3d5;       "/>
      <path d="M47.92127.50145V11.9672A43.30666,43.30666,0,0,1,35.9618,15.24629V6.04274A17.69134,17.69134,0,0,0,42.38,2.54259,8.09,8.09,0,0,1,47.92127.50145Z" style="         fill: #ffe4e9;       "/>
      <path d="M35.9618,22.76977v.00737a42.13427,42.13427,0,0,1-7.76665.72214,42.05052,42.05052,0,0,1-7.44979-.66319V15.1505a54.532,54.532,0,0,0,15.21644.09579Z" style="         fill: #fed3d5;       "/>
      <path d="M35.9618,6.05011v9.19618a54.532,54.532,0,0,1-15.21644-.09579V6.1459A26.67282,26.67282,0,0,0,35.9618,6.05011Z" style="         fill: #ffe4e9;       "/>
      <path d="M20.74536,22.82872v.00737A38.01846,38.01846,0,0,1,9.13223,18.798V11.76825A41.585,41.585,0,0,0,20.74536,15.1505Z" style="         fill: #fed3d5;       "/>
      <path d="M20.74536,6.1459v9.0046A41.585,41.585,0,0,1,9.13223,11.76825V.52355a8.05805,8.05805,0,0,1,4.84126,2.01167A18.084,18.084,0,0,0,20.74536,6.1459Z" style="         fill: #ffe4e9;       "/>
      <path d="M9.13223,11.76825V18.798A32.42321,32.42321,0,0,1,3.2446,14.68627,8.12031,8.12031,0,0,1,1.01188,5.7922,23.86481,23.86481,0,0,0,9.13223,11.76825Z" style="         fill: #fed3d5;       "/>
      <path d="M9.13223.52355v11.2447a23.86481,23.86481,0,0,1-8.12035-5.976V5.78483A8.22874,8.22874,0,0,1,2.5372,3.24262,8.089,8.089,0,0,1,9.13223.52355Z" style="         fill: #ffe4e9;       "/>
    </g>
    <g>
      <path d="M28.19513,23.99931a42.62111,42.62111,0,0,1-7.53833-.67114A38.332,38.332,0,0,1,8.89142,19.23625a32.99984,32.99984,0,0,1-5.9773-4.1748A8.56681,8.56681,0,0,1,.52862,5.65727a.46279.46279,0,0,1,.0149-.04761A8.71,8.71,0,0,1,2.16119,2.913a8.60644,8.60644,0,0,1,12.14356-.75232A17.67413,17.67413,0,0,0,20.889,5.667a26.30509,26.30509,0,0,0,14.84668-.07.48391.48391,0,0,1,.07519-.031,17.28974,17.28974,0,0,0,6.23731-3.39771,8.58729,8.58729,0,0,1,12.14355.73682,8.69513,8.69513,0,0,1,1.9541,3.7998c.00318.01392.00586.02783.00781.042a8.63335,8.63335,0,0,1-2.69018,8.3053,32.42212,32.42212,0,0,1-5.2915,3.80249,37.88343,37.88343,0,0,1-12.11866,4.41394A42.66754,42.66754,0,0,1,28.19513,23.99931ZM1.4942,5.9229c-.00391.01465-.0083.02893-.01343.0426a7.573,7.573,0,0,0,2.09546,8.34656,32.00911,32.00911,0,0,0,5.7959,4.04736,37.3376,37.3376,0,0,0,11.46118,3.9845,41.84067,41.84067,0,0,0,15.03614-.05823,36.8899,36.8899,0,0,0,11.801-4.296,31.42636,31.42636,0,0,0,5.12817-3.68433,7.63374,7.63374,0,0,0,2.37207-7.37195c-.00268-.0122-.00512-.02465-.00683-.0371A7.59977,7.59977,0,0,0,42.712,2.9163,17.99948,17.99948,0,0,1,36.189,6.49516a.48486.48486,0,0,1-.07618.03162,27.33187,27.33187,0,0,1-15.51123.098,18.67243,18.67243,0,0,1-6.95849-3.71435,7.60655,7.60655,0,0,0-10.7312.66308A7.71819,7.71819,0,0,0,1.4942,5.9229Z" fill="#000000"/>
      <path d="M20.74542,23.07878a.24994.24994,0,0,1-.25-.25V6.14592a.25.25,0,0,1,.5,0V22.82878A.24993.24993,0,0,1,20.74542,23.07878Z" fill="#000000"/>
      <path d="M35.96173,23.01982a.24994.24994,0,0,1-.25-.25V6.05009a.25309.25309,0,0,1,.25-.25366.24684.24684,0,0,1,.25.24634v16.727A.24994.24994,0,0,1,35.96173,23.01982Z" fill="#000000"/>
      <path d="M9.13214,19.05168a.24684.24684,0,0,1-.25-.24634V.52354a.25.25,0,0,1,.5,0V18.798A.25309.25309,0,0,1,9.13214,19.05168Z" fill="#000000"/>
      <path d="M47.9212,18.66484a.24994.24994,0,0,1-.25-.25V.50145a.25.25,0,0,1,.5,0V18.41484A.24993.24993,0,0,1,47.9212,18.66484Z" fill="#000000"/>
      <path d="M28.6817,15.98234a54.01015,54.01015,0,0,1-7.97339-.58459,41.54514,41.54514,0,0,1-11.6831-3.40356A24.07307,24.07307,0,0,1,.82111,5.95378a.24972.24972,0,0,1-.05933-.16162.25629.25629,0,0,1,.25-.25732.24879.24879,0,0,1,.22632.13745,23.62224,23.62224,0,0,0,8.001,5.87,41.04783,41.04783,0,0,0,11.543,3.361,54.33174,54.33174,0,0,0,15.146.09534,42.72808,42.72808,0,0,0,11.89038-3.25916,25.27373,25.27373,0,0,0,7.6477-5.07666.25964.25964,0,0,1,.44239.15369.26686.26686,0,0,1-.073.18384,25.74465,25.74465,0,0,1-7.8125,5.19519,43.21432,43.21432,0,0,1-12.02808,3.29858A54.58112,54.58112,0,0,1,28.6817,15.98234Z" fill="#000000"/>
    </g>
  </g>
</g></g></g><!--ITEM 16--><g><defs><clipPath id="clip-path-id-viewbox-item-16"><rect x="0.0" y="0.0" width="26.06" height="24.5"/></clipPath></defs><g transform="translate(98.0 422.0) rotate(39.009834611456135 33.5 31.0) scale(2.5709900230237914 2.5306122448979593)"><g clip-path="url(#clip-path-id-viewbox-item-16)" transform="translate(-0.0 -0.0)"><g>
	<path d="M24.561,24.5c-0.417,0-0.832-0.173-1.128-0.512c-3.381-3.857-6.831-7.578-10.251-11.057C9.681,9.372,6.065,5.9,2.433,2.613   C1.819,2.056,1.772,1.108,2.328,0.493c0.556-0.614,1.504-0.661,2.119-0.105c3.674,3.327,7.333,6.84,10.873,10.44   c3.461,3.52,6.949,7.282,10.368,11.184c0.546,0.623,0.484,1.57-0.139,2.116C25.264,24.378,24.912,24.5,24.561,24.5z" fill="#1a4d81"/>
	<path d="M1.501,24.45c-0.419,0-0.836-0.175-1.133-0.517c-0.543-0.625-0.476-1.573,0.149-2.116l22.609-19.63   c0.624-0.544,1.572-0.478,2.116,0.147c0.543,0.626,0.477,1.573-0.148,2.116L2.484,24.083C2.2,24.329,1.849,24.45,1.501,24.45z" fill="#1a4d81"/>
</g>
</g></g></g><!--ITEM 17--><g><defs><clipPath id="clip-path-id-viewbox-item-17"><rect x="0.0" y="0.0" width="47.65024" height="74.9069"/></clipPath></defs><g transform="translate(164.0 409.0) rotate(-6.7513220326073 28.0 43.0) scale(1.175230177224711 1.1480918313266202)"><g clip-path="url(#clip-path-id-viewbox-item-17)" transform="translate(-0.0 -0.0)"><path d="M22.09258,16.32915c1.85616-6.33419,11.32185-7.66191,12.39347-.2023,1.03011,7.17075-5.52273,13.85535-9.92644,18.68266-5.23473,5.73827-11.89233,9.84306-17.1334,15.4753A27.8431,27.8431,0,0,0,.00008,69.57891c-.0277,5.74713,7.29242,7.1122,10.26112,2.77921.95166-1.389,5.71635-.65971,6.96043-.57389a87.42878,87.42878,0,0,1,9.20518,1.403c5.79706,1.02706,11.38994,1.77989,17.24194.80382,6.1826-1.0312,4.76044-11.30761-1.48192-10.94984-8.26468.47366-15.90527-1.86679-24.07207-2.51574-6.74639-.53609-13.28516.44939-17.36289,6.27423L11.013,69.57891c.40747-11.92647,12.26465-17.19043,19.61931-24.90838,6.731-7.06345,14.27319-15.52515,14.97822-25.72841.5853-8.47034-4.33639-17.09392-13.101-18.67307A18.51953,18.51953,0,0,0,11.77812,13.48559c-1.78366,6.66256,8.37918,9.44778,10.31446,2.84356Z" style="         fill: #1a4d81;       "/>
</g></g></g><!--ITEM 18--><g><defs><clipPath id="clip-path-id-viewbox-item-18"><rect x="0.0" y="0.0" width="44.46721" height="75.99116"/></clipPath></defs><g transform="translate(224.0 400.0) rotate(-6.7513220326073 28.0 46.5) scale(1.259354926922557 1.2238265608789234)"><g clip-path="url(#clip-path-id-viewbox-item-18)" transform="translate(-0.0 -0.0)"><path d="M39.58887,9.8798C34.20026-.63308,21.9668-3.58334,13.4715,5.0836,5.0127,13.71323,1.91913,26.63706.58,38.22111-1.00592,51.93943-.515,74.70054,17.65332,75.955a4.93928,4.93928,0,0,0,.62769.00049c14.12182.91272,22.39917-15.883,24.72876-27.78991C45.35474,36.1804,45.30689,21.03532,39.58887,9.8798Zm-21.895,55.1864c-4.92157-1.67419-5.54974-7.81445-5.99615-12.6474a69.13379,69.13379,0,0,1,1.20574-20.59863,50.90326,50.90326,0,0,1,4.35273-12.98676c1.32238-2.55987,3.99182-8.08832,7.38678-8.39374,8.5227-.76672,8.57769,18.92963,8.60022,23.76825C33.29987,46.36924,30.46546,61.1677,17.69385,65.0662Z" style="         fill: #1a4d81;       "/>
</g></g></g><!--ITEM 19--><g><defs><clipPath id="clip-path-id-viewbox-item-19"><rect x="0.0" y="0.0" width="50.48" height="100.7"/></clipPath></defs><g transform="translate(481.0 30.0) rotate(15.774377495166735 56.0 111.0) scale(2.218700475435816 2.204568023833168)"><g clip-path="url(#clip-path-id-viewbox-item-19)" transform="translate(-0.0 -0.0)"><g>
    <polygon points="49.73 39.02 0.75 99.95 16.08 51.29 3.42 58.52 15.74 15.85 48.72 0.75 31.47 40.4 49.73 39.02" style="         fill: #ffd14a;       "/>
    <path d="M.74945,100.7a.74013.74013,0,0,1-.35327-.08887.74956.74956,0,0,1-.36157-.88671l14.75464-46.834L3.79218,59.17169a.74988.74988,0,0,1-1.09253-.85937L15.01947,15.64239a.74917.74917,0,0,1,.40821-.47363L48.40766.06818a.74982.74982,0,0,1,1,.98046L32.654,39.55841l17.01928-1.28613a.76156.76156,0,0,1,.72022.39843.74964.74964,0,0,1-.0791.81934l-48.98,60.92969A.74848.74848,0,0,1,.74945,100.7ZM16.08,50.53986a.74995.74995,0,0,1,.71533.97558L2.66327,96.37286,48.06171,39.89825l-16.53516,1.25a.75.75,0,0,1-.74438-1.04687L47.25043,2.24786l-30.8855,14.1416L4.65351,56.952,15.708,50.63849A.74684.74684,0,0,1,16.08,50.53986Z" fill="#000000"/>
  </g>
</g></g></g><!--ITEM 20--><g><defs><clipPath id="clip-path-id-crop-item-20"><rect transform="scale(1.3808492647058823 1.384837037037037)" x="0.0" y="0.0" width="188.0" height="270.0"/></clipPath><clipPath id="clip-path-id-viewbox-item-20"><rect x="0.0" y="0.0" width="375.591" height="373.906"/></clipPath></defs><g clip-path="url(#clip-path-id-crop-item-20)" transform="translate(730.0 390.0) rotate(-68.47302599737553 -136.0 -135.0) scale(-0.7241920067307257 -0.7221066257294614)"><g clip-path="url(#clip-path-id-viewbox-item-20)" transform="translate(-0.0 -0.0)"><g>
	<path style="fill:#38798f;" d="M372.851,332.262c-9.56-27.43-21.24-54.23-34.81-80.04c-18-37.35-49.42-77.77-66.03-99.82   c-44.33-54.07-98.23-99.84-159.64-133.28c-14.31-7.79-29.27-15.01-45.37-17.51c-0.45-0.07-0.91-0.14-1.36-0.2l-0.07,0.6   c3.36,15.57-3.88,32.88-17.33,41.42c-13.41,8.51-32.06,7.74-44.72-1.84c-2.77,10.99-3.22,22.94-2.41,34.22   c4.41,60.85,36.02,115.74,67.96,167.96c-9.91-5.67-22.46-5.92-33.07-1.71c-1.7,0.68-3.35,1.46-4.94,2.34   c-10.8,8.09-18.3,23.83-17.67,38.18c0.19,4.32,1.1,8.86,4.03,12.03c2.93,3.17,8.38,4.29,11.6,1.4l0.06,0.02   c0.5-1.89,1.05-3.77,1.7-5.61c2.53-7.12,6.7-14.07,13.31-17.75c6.75-3.76,15.23-3.52,22.42-0.68c7.18,2.84,13.72,8.01,18.35,14.31   c-8.4,0.98-16.51,4.51-22.95,9.99v0.01c-4.81,6.31-6.97,13.43-6.45,20.37c0.19,2.47,0.68,4.95,1.91,7.1   c1.22,2.14,3.26,3.91,5.69,4.37c3.71,0.72,7.05-2.73,9.48-6.98c0.49-1.16,1.07-2.27,1.79-3.31c3.36-4.89,9.29-7.56,15.2-8.14   c5.9-0.58,11.83,0.71,17.52,2.38c5.45,1.61,10.94,3.66,15.17,7.45c4.23,3.79,7,9.65,5.75,15.19c-1.26,5.55-7.42,9.9-12.78,8.04   c-3.23-1.01-5.73-1.5-7.88-1.42c-5.85,2.13-7.31,8.69-5.09,13.39c2.22,4.69,7.28,7.62,12.44,8.22c13.61,1.6,27.3-1.85,40.26-17.62   h0.01c0.57-1.86,1.03-3.75,1.39-5.64c1.3-6.86,1.39-14.03-0.48-20.75c-2.01-7.23-6.16-13.64-10.25-19.92   c-6.55-10.04-12.7-17.71-19.25-27.75c-34.8-52.69-70.32-107.05-83.15-168.88c-1.86-8.98-3.23-18.23-1.95-27.31   c1.29-9.08,5.53-18.08,13.01-23.38c8.13-5.76,19.04-6.42,28.69-3.93c9.64,2.49,18.3,7.79,26.63,13.26   c53.52,35.18,100.3,80.58,137.07,133.01c27.55,35.97,54.02,98.19,67.61,144.01c31.53,0,60.59,0,60.59,0   C374.191,336.122,373.521,334.192,372.851,332.262z"/>
	<path style="fill:#334a5a;" d="M154.921,345.342h0.01c-2.67,8.7-7.64,16.76-15.12,21.84c-5.41,3.66-11.89,5.61-18.41,5.93   c-5.2,0.25-10.55-0.54-15.16-2.97s-8.41-6.61-9.75-11.65c-1.34-5.03,0.09-10.87,4.04-14.26c2.15-1.86,4.2-2.78,6.78-2.88   c-5.85,2.13-7.31,8.69-5.09,13.39c2.22,4.69,7.28,7.62,12.44,8.22C128.271,364.562,141.961,361.112,154.921,345.342z"/>
	<path style="fill:#334a5a;" d="M65.571,2.012c3.36,15.57-3.88,32.88-17.33,41.42c-13.41,8.51-32.06,7.74-44.72-1.84   c2.88-11.42,8.24-21.8,17.28-29.31c12.19-10.11,29.12-13.01,44.84-10.87L65.571,2.012z"/>
	<path style="fill:#334a5a;" d="M61.911,296.292v0.01c-4.81,6.31-6.97,13.43-6.45,20.37c0.19,2.47,0.68,4.95,1.91,7.1   c1.22,2.14,3.26,3.91,5.69,4.37c3.71,0.72,7.05-2.73,9.48-6.98c-1.09,2.54-1.73,5.3-2.36,8.01c-0.92,3.94-1.91,7.98-4.29,11.26   c-2.37,3.27-6.49,5.62-10.43,4.71c-5.42-1.25-7.85-7.63-8.29-13.17c-0.93-11.79,3.33-23.9,11.42-32.52   C59.641,298.342,60.751,297.282,61.911,296.292z"/>
	<path style="fill:#334a5a;" d="M24.711,312.252c-5.34,14.51-14.09,13.22-17.55,9.36c-5.93-6.23-6.57-15.75-5.83-24.32   c0.99-11.4,3.87-22.78,9.6-32.69c4.81-8.34,11.73-15.59,20.13-20.2c-10.8,8.09-18.3,23.83-17.67,38.18   c0.19,4.32,1.1,8.86,4.03,12.03s8.38,4.29,11.6,1.4l0.06,0.02C27.661,301.452,26.641,306.992,24.711,312.252z"/>
	<path d="M374.841,338.812h-60.59c-0.332,0-0.625-0.218-0.719-0.537c-13.409-45.21-39.477-107.198-67.486-143.767   c-36.49-52.03-83.818-97.956-136.886-132.839c-8.054-5.289-16.727-10.661-26.406-13.161c-10.567-2.726-20.798-1.335-28.069,3.816   c-6.679,4.732-11.308,13.069-12.701,22.874c-1.307,9.27,0.249,18.877,1.942,27.052c12.976,62.534,50.2,118.894,83.041,168.619   c0.228,0.346,0.133,0.811-0.212,1.04c-0.345,0.229-0.811,0.134-1.039-0.213C92.799,221.858,55.491,165.37,42.457,102.555   c-1.72-8.302-3.297-18.069-1.958-27.567C41.949,64.776,46.804,56.07,53.817,51.1c7.632-5.407,18.315-6.882,29.311-4.044   c9.901,2.557,18.695,8.001,26.854,13.359c53.225,34.987,100.693,81.049,137.272,133.207c27.996,36.55,54.06,98.396,67.555,143.69   h58.986c-0.526-1.554-1.063-3.102-1.601-4.65l-0.053-0.154c-9.477-27.191-21.174-54.086-34.766-79.937   c-16.609-34.464-44.978-71.966-61.927-94.373c-1.424-1.882-2.774-3.667-4.038-5.345c-45.471-55.461-99.108-100.242-159.4-133.073   C98.104,12.209,83.01,4.857,66.886,2.353c-0.445-0.07-0.9-0.139-1.344-0.198C48.422-0.172,32.292,3.726,21.28,12.859   C13.105,19.651,7.374,29.38,4.248,41.776C1.754,51.67,0.951,63.103,1.859,75.758C6.163,135.15,36.41,188.937,69.711,243.381   l1.931,3.147c0.756,1.233,1.51,2.463,2.267,3.691c0.217,0.353,0.108,0.814-0.245,1.032c-0.353,0.217-0.815,0.108-1.032-0.245   c-0.758-1.229-1.512-2.46-2.269-3.694l-1.931-3.146C35.031,189.556,4.692,135.594,0.363,75.866   c-0.92-12.815-0.102-24.408,2.431-34.457c3.205-12.711,9.103-22.705,17.528-29.704c11.335-9.4,27.892-13.421,45.42-11.037   c0.454,0.061,0.919,0.131,1.375,0.202c16.35,2.539,31.585,9.956,45.613,17.592c60.463,32.924,114.248,77.828,159.862,133.463   c1.283,1.702,2.632,3.486,4.055,5.367c16.983,22.452,45.408,60.028,62.07,94.603c13.614,25.893,25.341,52.857,34.842,80.119   l0.054,0.155c0.653,1.881,1.306,3.763,1.939,5.653c0.077,0.229,0.039,0.48-0.102,0.676   C375.309,338.696,375.082,338.812,374.841,338.812z" fill="#000000"/>
	<path d="M12.905,324.925c-2.754,0-5.005-1.364-6.303-2.812c-0.277-0.308-0.251-0.783,0.058-1.059   c0.308-0.277,0.782-0.251,1.059,0.058c1.27,1.416,3.648,2.737,6.514,2.186c3.894-0.745,7.365-4.76,9.774-11.304   c1.326-3.613,2.238-7.447,3.119-11.153c0.397-1.669,0.794-3.339,1.229-4.998c0.579-2.189,1.125-3.99,1.719-5.67   c3.059-8.608,7.78-14.886,13.652-18.155c6.466-3.602,15.087-3.872,23.061-0.723c7.251,2.868,13.884,8.04,18.678,14.563   c0.245,0.334,0.174,0.803-0.16,1.049c-0.334,0.245-0.803,0.173-1.048-0.16c-4.63-6.299-11.03-11.292-18.021-14.057   c-7.56-2.986-15.702-2.748-21.779,0.638c-5.549,3.089-10.033,9.087-12.968,17.346c-0.579,1.64-1.114,3.404-1.682,5.551   c-0.431,1.646-0.826,3.304-1.22,4.963c-0.892,3.749-1.814,7.626-3.171,11.324c-3.329,9.046-7.765,11.66-10.9,12.26   C13.963,324.876,13.425,324.925,12.905,324.925z" fill="#000000"/>
	<path d="M7.161,322.362c-0.198,0-0.396-0.078-0.543-0.233c-5.049-5.305-7.023-13.45-6.034-24.902   c1.101-12.672,4.364-23.775,9.698-33.001c5.121-8.879,12.182-15.961,20.418-20.482c1.596-0.884,3.287-1.685,5.022-2.379   c11.327-4.496,23.926-3.842,33.705,1.746c0.054,0.026,0.11,0.057,0.139,0.076c0.345,0.23,0.438,0.695,0.208,1.04   c-0.221,0.332-0.66,0.43-1,0.233c-0.026-0.011-0.052-0.024-0.077-0.038c-9.389-5.371-21.509-5.993-32.421-1.664   c-1.676,0.67-3.309,1.444-4.853,2.299c-7.999,4.39-14.86,11.276-19.844,19.918c-5.224,9.035-8.421,19.929-9.503,32.38   c-0.949,10.998,0.891,18.763,5.626,23.738c0.286,0.3,0.274,0.775-0.026,1.061C7.533,322.294,7.347,322.362,7.161,322.362z" fill="#000000"/>
	<path d="M24.421,297.81c-2.628,0-5.354-1.232-7.092-3.113c-2.494-2.699-3.823-6.66-4.063-12.11   c-0.626-14.258,6.661-30.001,17.72-38.285c0.055-0.041,0.133-0.031,0.175,0.025c0.041,0.055,0.03,0.133-0.025,0.175   c-10.997,8.237-18.243,23.894-17.62,38.074c0.237,5.388,1.544,9.297,3.997,11.951c2.783,3.01,8.159,4.323,11.425,1.392   c0.051-0.046,0.13-0.042,0.177,0.01c0.046,0.051,0.042,0.13-0.01,0.177C27.78,297.294,26.12,297.81,24.421,297.81z" fill="#000000"/>
	<path d="M57.221,346.092c-0.637,0-1.281-0.069-1.929-0.219c-5.835-1.346-8.408-8.033-8.869-13.841   c-0.944-11.963,3.401-24.334,11.621-33.093c1.084-1.146,2.22-2.228,3.38-3.217c6.535-5.561,14.827-9.17,23.35-10.165   c1.886-0.219,3.76-0.315,5.569-0.285c0.414,0.007,0.744,0.348,0.738,0.762c-0.007,0.414-0.333,0.739-0.762,0.738   c-1.742-0.031-3.551,0.063-5.371,0.275c-8.231,0.96-16.24,4.446-22.55,9.816c-1.118,0.955-2.216,2-3.261,3.104   c-7.934,8.454-12.128,20.397-11.217,31.945c0.419,5.279,2.665,11.334,7.711,12.498c3.816,0.882,7.6-1.584,9.654-4.419   c2.36-3.252,3.32-7.363,4.167-10.99c0.637-2.741,1.289-5.544,2.401-8.136c0.547-1.295,1.157-2.422,1.862-3.441   c3.238-4.711,8.977-7.796,15.744-8.459c6.34-0.625,12.558,0.868,17.804,2.407c5.138,1.518,10.992,3.609,15.459,7.611   c4.837,4.334,7.185,10.581,5.981,15.914c-0.72,3.171-2.931,6.053-5.915,7.709c-2.571,1.427-5.356,1.737-7.842,0.874   c-0.391-0.136-0.598-0.563-0.463-0.955c0.135-0.391,0.562-0.601,0.954-0.462c2.078,0.721,4.43,0.449,6.623-0.769   c2.617-1.453,4.553-3.968,5.18-6.729c1.085-4.811-1.081-10.489-5.519-14.466c-4.245-3.803-9.905-5.819-14.882-7.289   c-5.108-1.499-11.152-2.952-17.234-2.353c-6.233,0.611-11.711,3.534-14.656,7.818c-0.647,0.935-1.209,1.974-1.717,3.177   c-1.061,2.473-1.698,5.21-2.313,7.857c-0.886,3.797-1.883,8.064-4.421,11.562C64.492,343.641,60.998,346.092,57.221,346.092z" fill="#000000"/>
	<path d="M64.027,328.36c-0.331,0-0.662-0.032-0.99-0.096c-2.28-0.432-4.439-2.088-5.775-4.431   c-1.084-1.896-1.697-4.168-1.926-7.152c-0.534-7.125,1.705-14.198,6.475-20.456c0.042-0.055,0.121-0.065,0.175-0.024   c0.055,0.042,0.066,0.121,0.024,0.175c-4.732,6.208-6.954,13.223-6.425,20.285c0.226,2.945,0.828,5.185,1.894,7.047   c1.3,2.28,3.395,3.891,5.605,4.309c4.222,0.816,7.669-3.983,9.348-6.919c0.034-0.061,0.111-0.082,0.17-0.046   c0.06,0.034,0.081,0.11,0.046,0.17C69.993,325.87,66.967,328.36,64.027,328.36z" fill="#000000"/>
	<path d="M119.604,373.906c-5.135,0-9.843-1.061-13.712-3.1c-5.102-2.689-8.792-7.107-10.125-12.121   c-1.472-5.526,0.246-11.563,4.276-15.022c2.325-2.012,4.559-2.957,7.24-3.061c2.154-0.076,4.661,0.368,8.133,1.454   c0.395,0.124,0.615,0.544,0.492,0.939c-0.124,0.395-0.544,0.616-0.94,0.492c-3.302-1.032-5.655-1.462-7.628-1.386   c-2.347,0.091-4.237,0.898-6.317,2.698c-3.605,3.093-5.133,8.517-3.806,13.5c1.226,4.611,4.643,8.685,9.375,11.179   c4.088,2.155,9.197,3.149,14.774,2.885c6.666-0.328,12.899-2.334,18.026-5.802c8.607-5.846,12.812-14.885,14.823-21.439   c0.545-1.779,1.006-3.65,1.37-5.56c1.401-7.396,1.245-14.262-0.466-20.409c-1.998-7.186-6.145-13.554-10.156-19.712   c-3.266-5.006-6.49-9.501-9.607-13.848c-3.126-4.36-6.359-8.868-9.643-13.901c-0.226-0.347-0.128-0.812,0.218-1.038   c0.347-0.227,0.812-0.129,1.038,0.218c3.266,5.005,6.489,9.5,9.605,13.846c3.127,4.36,6.36,8.869,9.645,13.904   c4.073,6.254,8.285,12.72,10.344,20.129c1.773,6.37,1.939,13.466,0.494,21.09c-0.374,1.964-0.849,3.889-1.41,5.72   c-2.082,6.784-6.446,16.149-15.416,22.241c-5.355,3.623-11.854,5.718-18.795,6.059   C120.821,373.891,120.209,373.906,119.604,373.906z" fill="#000000"/>
	<path d="M120.534,363.442c-1.914,0-3.875-0.119-5.888-0.356c-5.623-0.654-10.427-3.831-12.538-8.291   c-1.239-2.625-1.329-5.771-0.241-8.419c0.701-1.704,2.207-3.979,5.401-5.143c0.065-0.022,0.136,0.01,0.16,0.075   s-0.01,0.137-0.075,0.161c-3.109,1.132-4.574,3.345-5.255,5.002c-1.062,2.583-0.974,5.655,0.236,8.217   c2.074,4.382,6.803,7.505,12.341,8.149c15.992,1.879,28.75-3.706,40.149-17.576c0.044-0.053,0.123-0.061,0.176-0.017   c0.053,0.044,0.061,0.123,0.017,0.176C144.993,357.619,133.92,363.442,120.534,363.442z" fill="#000000"/>
	<path d="M27.291,49.456c-0.565,0-1.13-0.012-1.696-0.035c-8.139-0.335-16.005-3.08-22.149-7.729c-0.018-0.01-0.044-0.03-0.071-0.05   c-0.019-0.015-0.037-0.03-0.058-0.042c-0.059-0.035-0.079-0.112-0.043-0.171s0.113-0.079,0.171-0.043   c0.03,0.018,0.057,0.039,0.084,0.06c0.018,0.014,0.037,0.029,0.057,0.041c12.556,9.5,31.303,10.271,44.588,1.841   C61.518,34.854,68.783,17.49,65.449,2.038c-0.015-0.067,0.028-0.134,0.096-0.148c0.067-0.017,0.134,0.028,0.148,0.096   c1.631,7.556,0.79,15.873-2.368,23.421c-3.158,7.548-8.491,13.987-15.017,18.131C42.254,47.379,34.848,49.456,27.291,49.456z" fill="#000000"/>
</g>
</g></g></g><!--ITEM 21--><g><defs><clipPath id="clip-path-id-crop-item-21"><rect transform="scale(0.4507142857142857 0.45360360360360363)" x="0.0" y="0.0" width="89.0" height="85.0"/></clipPath><clipPath id="clip-path-id-viewbox-item-21"><rect x="0.0" y="0.0" width="50.48" height="100.7"/></clipPath></defs><g clip-path="url(#clip-path-id-crop-item-21)" transform="translate(481.0 30.0) rotate(15.774377495166735 56.0 111.0) scale(2.218700475435816 2.204568023833168)"><g clip-path="url(#clip-path-id-viewbox-item-21)" transform="translate(-0.0 -0.0)"><g>
    <polygon points="49.73 39.02 0.75 99.95 16.08 51.29 3.42 58.52 15.74 15.85 48.72 0.75 31.47 40.4 49.73 39.02" style="         fill: #ffd14a;       "/>
    <path d="M.74945,100.7a.74013.74013,0,0,1-.35327-.08887.74956.74956,0,0,1-.36157-.88671l14.75464-46.834L3.79218,59.17169a.74988.74988,0,0,1-1.09253-.85937L15.01947,15.64239a.74917.74917,0,0,1,.40821-.47363L48.40766.06818a.74982.74982,0,0,1,1,.98046L32.654,39.55841l17.01928-1.28613a.76156.76156,0,0,1,.72022.39843.74964.74964,0,0,1-.0791.81934l-48.98,60.92969A.74848.74848,0,0,1,.74945,100.7ZM16.08,50.53986a.74995.74995,0,0,1,.71533.97558L2.66327,96.37286,48.06171,39.89825l-16.53516,1.25a.75.75,0,0,1-.74438-1.04687L47.25043,2.24786l-30.8855,14.1416L4.65351,56.952,15.708,50.63849A.74684.74684,0,0,1,16.08,50.53986Z" fill="#000000"/>
  </g>
</g></g></g><!--ITEM 22--><g><defs><clipPath id="clip-path-id-viewbox-item-22"><rect x="0.0" y="0.0" width="23.75" height="70.33"/></clipPath></defs><g transform="translate(449.0 45.0) rotate(-6.971194759488778 16.5 50.0) scale(1.3894736842105264 1.4218683349921797)"><g clip-path="url(#clip-path-id-viewbox-item-22)" transform="translate(-0.0 -0.0)"><g>
	<path d="M1.502,60.02c-0.108,0-0.219-0.012-0.329-0.037c-0.808-0.181-1.317-0.983-1.136-1.792   c2.34-10.463,4.678-20.929,7.016-31.397l5.724-25.623c0.181-0.808,0.982-1.315,1.791-1.137c0.809,0.181,1.317,0.982,1.137,1.791   L9.98,27.449C7.642,37.917,5.304,48.384,2.964,58.848C2.808,59.545,2.188,60.02,1.502,60.02z" fill="#000000"/>
	<path d="M13.619,70.33c-0.184,0-0.371-0.034-0.552-0.106c-0.77-0.305-1.147-1.177-0.842-1.947l8.63-21.8   c0.305-0.77,1.176-1.146,1.947-0.842c0.77,0.305,1.147,1.177,0.842,1.947l-8.63,21.8C14.781,69.972,14.216,70.33,13.619,70.33z" fill="#000000"/>
</g>
</g></g></g><!--ITEM 23--><g><defs><clipPath id="clip-path-id-viewbox-item-23"><rect x="0.0" y="0.0" width="40.646" height="24.169"/></clipPath></defs><g transform="translate(696.0 95.0) rotate(9.557992402089106 -41.0 25.0) scale(-2.017418688185799 2.0687657743390293)"><g clip-path="url(#clip-path-id-viewbox-item-23)" transform="translate(-0.0 -0.0)"><g>
	<g>
		<path style="fill:#1A1A1A;" d="M39.648,23.906c-0.315,0-0.626-0.148-0.82-0.427C38.706,23.306,26.426,6.115,3.735,1.984    C3.191,1.885,2.831,1.365,2.93,0.822c0.099-0.543,0.62-0.909,1.163-0.805C27.618,4.298,40.34,22.153,40.466,22.332    c0.316,0.452,0.206,1.075-0.246,1.393C40.045,23.847,39.846,23.906,39.648,23.906z"/>
	</g>
	<g>
		<path style="fill:#1A1A1A;" d="M25.968,24.169c-0.207,0-0.416-0.064-0.595-0.197c-0.103-0.076-10.437-7.584-24.232-5.622    c-0.542,0.079-1.052-0.303-1.131-0.85c-0.078-0.547,0.303-1.053,0.85-1.131c14.635-2.083,25.261,5.666,25.706,5.997    c0.443,0.329,0.535,0.955,0.206,1.398C26.575,24.03,26.273,24.169,25.968,24.169z"/>
	</g>
</g>
</g></g></g></svg>